<svg width="621" height="113" viewBox="0 0 621 113" fill="none" xmlns="http://www.w3.org/2000/svg">
<g clip-path="url(#clip0_112_61)">
<path d="M522.342 70.4738L549.894 97.9367C557.765 105.782 570.526 105.782 578.396 97.9367L605.948 70.4738C613.819 62.6286 613.819 49.909 605.948 42.0638L578.396 14.601C570.526 6.75578 557.765 6.75578 549.894 14.601L522.342 42.0638C514.471 49.909 514.471 62.6286 522.342 70.4738Z" fill="#D3FF8C"/>
<path d="M555.052 79.3734L557.103 81.4181C560.054 84.36 564.84 84.36 567.791 81.4181L589.377 59.9026C592.328 56.9606 592.328 52.1908 589.377 49.2488L587.325 47.2042C584.374 44.2622 579.589 44.2622 576.637 47.2042L555.052 68.7197C552.1 71.6616 552.1 76.4315 555.052 79.3734Z" fill="black"/>
<path d="M538.066 62.4423L540.117 64.4869C543.068 67.4289 547.854 67.4289 550.805 64.4869L572.391 42.9714C575.342 40.0295 575.342 35.2596 572.391 32.3177L570.339 30.273C567.388 27.3311 562.602 27.3311 559.651 30.273L538.066 51.7885C535.114 54.7305 535.114 59.5003 538.066 62.4423Z" fill="black"/>
<path d="M184.426 70.474L211.978 97.9369C219.849 105.782 232.61 105.782 240.48 97.9369L268.032 70.474C275.903 62.6288 275.903 49.9092 268.032 42.064L240.48 14.6012C232.61 6.75597 219.849 6.75597 211.978 14.6012L184.426 42.064C176.555 49.9092 176.555 62.6288 184.426 70.474Z" fill="#FF49F8"/>
<path d="M217.136 79.3736L219.187 81.4182C222.139 84.3601 226.924 84.3601 229.875 81.4182L251.461 59.9027C254.412 56.9607 254.412 52.1909 251.461 49.2489L249.41 47.2043C246.458 44.2624 241.673 44.2624 238.721 47.2043L217.136 68.7198C214.184 71.6618 214.184 76.4316 217.136 79.3736Z" fill="black"/>
<path d="M200.15 62.4424L202.201 64.487C205.152 67.429 209.938 67.429 212.889 64.487L234.475 42.9715C237.426 40.0296 237.426 35.2597 234.475 32.3178L232.423 30.2732C229.472 27.3312 224.686 27.3312 221.735 30.2732L200.15 51.7887C197.198 54.7306 197.198 59.5005 200.15 62.4424Z" fill="black"/>
<path d="M380.936 14.205L353.384 41.6679C345.513 49.5131 345.513 62.2327 353.384 70.0779L380.936 97.5407C388.807 105.386 401.568 105.386 409.438 97.5407L436.99 70.0778C444.861 62.2326 444.861 49.513 436.99 41.6678L409.438 14.205C401.568 6.35979 388.807 6.35979 380.936 14.205Z" fill="white"/>
<path d="M372.008 46.8083L369.957 48.8529C367.005 51.7948 367.005 56.5647 369.957 59.5066L391.542 81.0221C394.494 83.9641 399.279 83.9641 402.231 81.0221L404.282 78.9775C407.233 76.0356 407.233 71.2657 404.282 68.3238L382.696 46.8083C379.745 43.8663 374.96 43.8663 372.008 46.8083Z" fill="#2630F7"/>
<path d="M388.994 29.877L386.943 31.9217C383.992 34.8636 383.992 39.6335 386.943 42.5754L408.528 64.0909C411.48 67.0329 416.265 67.0328 419.217 64.0909L421.268 62.0463C424.22 59.1043 424.22 54.3345 421.268 51.3925L399.683 29.877C396.731 26.9351 391.946 26.9351 388.994 29.877Z" fill="#2630F7"/>
<path d="M43.0202 14.205L15.4681 41.6679C7.59743 49.5131 7.59743 62.2327 15.4681 70.0779L43.0202 97.5407C50.8909 105.386 63.6518 105.386 71.5225 97.5407L99.0746 70.0779C106.945 62.2327 106.945 49.5131 99.0746 41.6679L71.5225 14.205C63.6518 6.35982 50.8909 6.35982 43.0202 14.205Z" fill="white"/>
<path d="M34.0916 46.8082L32.0404 48.8529C29.0889 51.7948 29.0889 56.5647 32.0404 59.5066L53.6258 81.0221C56.5773 83.9641 61.3626 83.9641 64.3141 81.0221L66.3654 78.9775C69.3169 76.0355 69.3169 71.2657 66.3654 68.3237L44.78 46.8082C41.8285 43.8663 37.0432 43.8663 34.0916 46.8082Z" fill="#FF49F8"/>
<path d="M51.0778 29.877L49.0266 31.9217C46.075 34.8636 46.075 39.6335 49.0266 42.5754L70.612 64.0909C73.5635 67.0329 78.3488 67.0328 81.3003 64.0909L83.3516 62.0463C86.3031 59.1043 86.3031 54.3345 83.3516 51.3925L61.7662 29.877C58.8147 26.9351 54.0293 26.9351 51.0778 29.877Z" fill="#FF49F8"/>
</g>
<defs>
<clipPath id="clip0_112_61">
<rect width="621" height="113" fill="white"/>
</clipPath>
</defs>
</svg>
