<svg width="621" height="113" viewBox="0 0 621 113" fill="none" xmlns="http://www.w3.org/2000/svg">
<g clip-path="url(#clip0_112_74)">
<path d="M98.6581 70.4738L71.106 97.9367C63.2353 105.782 50.4744 105.782 42.6037 97.9367L15.0516 70.4738C7.18093 62.6286 7.18094 49.909 15.0516 42.0638L42.6037 14.601C50.4744 6.75578 63.2353 6.75578 71.106 14.601L98.6581 42.0638C106.529 49.909 106.529 62.6286 98.6581 70.4738Z" fill="#D3FF8C"/>
<path d="M65.9484 79.3734L63.8971 81.4181C60.9456 84.36 56.1602 84.36 53.2087 81.4181L31.6233 59.9026C28.6718 56.9606 28.6718 52.1908 31.6233 49.2488L33.6746 47.2042C36.6261 44.2622 41.4115 44.2622 44.363 47.2042L65.9484 68.7197C68.8999 71.6616 68.8999 76.4315 65.9484 79.3734Z" fill="black"/>
<path d="M82.9345 62.4423L80.8832 64.4869C77.9317 67.4289 73.1463 67.4289 70.1948 64.4869L48.6094 42.9714C45.6579 40.0295 45.6579 35.2596 48.6094 32.3177L50.6607 30.273C53.6122 27.3311 58.3975 27.3311 61.3491 30.273L82.9345 51.7885C85.886 54.7305 85.886 59.5003 82.9345 62.4423Z" fill="black"/>
<path d="M436.574 70.474L409.022 97.9369C401.151 105.782 388.39 105.782 380.52 97.9369L352.968 70.474C345.097 62.6288 345.097 49.9092 352.968 42.064L380.52 14.6012C388.39 6.75597 401.151 6.75597 409.022 14.6012L436.574 42.064C444.445 49.9092 444.445 62.6288 436.574 70.474Z" fill="#FF49F8"/>
<path d="M403.864 79.3736L401.813 81.4182C398.862 84.3601 394.076 84.3601 391.125 81.4182L369.539 59.9027C366.588 56.9607 366.588 52.1909 369.539 49.2489L371.591 47.2043C374.542 44.2624 379.327 44.2624 382.279 47.2043L403.864 68.7198C406.816 71.6618 406.816 76.4316 403.864 79.3736Z" fill="black"/>
<path d="M420.85 62.4424L418.799 64.487C415.848 67.429 411.062 67.429 408.111 64.487L386.525 42.9715C383.574 40.0296 383.574 35.2597 386.525 32.3178L388.577 30.2732C391.528 27.3312 396.313 27.3312 399.265 30.2732L420.85 51.7887C423.802 54.7306 423.802 59.5005 420.85 62.4424Z" fill="black"/>
<path d="M240.064 14.205L267.616 41.6679C275.487 49.5131 275.487 62.2327 267.616 70.0779L240.064 97.5407C232.193 105.386 219.432 105.386 211.562 97.5407L184.01 70.0778C176.139 62.2326 176.139 49.513 184.01 41.6678L211.562 14.205C219.432 6.35979 232.193 6.35979 240.064 14.205Z" fill="white"/>
<path d="M248.992 46.8083L251.043 48.8529C253.995 51.7948 253.995 56.5647 251.043 59.5066L229.458 81.0221C226.506 83.9641 221.721 83.9641 218.769 81.0221L216.718 78.9775C213.767 76.0356 213.767 71.2657 216.718 68.3238L238.304 46.8083C241.255 43.8663 246.04 43.8663 248.992 46.8083Z" fill="#2630F7"/>
<path d="M232.006 29.877L234.057 31.9217C237.008 34.8636 237.008 39.6335 234.057 42.5754L212.472 64.0909C209.52 67.0329 204.735 67.0328 201.783 64.0909L199.732 62.0463C196.78 59.1043 196.78 54.3345 199.732 51.3925L221.317 29.877C224.269 26.9351 229.054 26.9351 232.006 29.877Z" fill="#2630F7"/>
<path d="M577.98 14.205L605.532 41.6679C613.403 49.5131 613.403 62.2327 605.532 70.0779L577.98 97.5407C570.109 105.386 557.348 105.386 549.478 97.5407L521.925 70.0779C514.055 62.2327 514.055 49.5131 521.925 41.6679L549.478 14.205C557.348 6.35982 570.109 6.35982 577.98 14.205Z" fill="white"/>
<path d="M586.908 46.8082L588.96 48.8529C591.911 51.7948 591.911 56.5647 588.96 59.5066L567.374 81.0221C564.423 83.9641 559.637 83.9641 556.686 81.0221L554.635 78.9775C551.683 76.0355 551.683 71.2657 554.635 68.3237L576.22 46.8082C579.172 43.8663 583.957 43.8663 586.908 46.8082Z" fill="#FF49F8"/>
<path d="M569.922 29.877L571.973 31.9217C574.925 34.8636 574.925 39.6335 571.973 42.5754L550.388 64.0909C547.437 67.0329 542.651 67.0328 539.7 64.0909L537.648 62.0463C534.697 59.1043 534.697 54.3345 537.648 51.3925L559.234 29.877C562.185 26.9351 566.971 26.9351 569.922 29.877Z" fill="#FF49F8"/>
</g>
<defs>
<clipPath id="clip0_112_74">
<rect width="621" height="113" fill="white" transform="matrix(-1 0 0 1 621 0)"/>
</clipPath>
</defs>
</svg>
