<svg width="420" height="151" viewBox="0 0 420 151" fill="none" xmlns="http://www.w3.org/2000/svg">
<rect width="420" height="151" fill="black"/>
<rect x="15" y="11" width="391" height="128" fill="url(#paint0_linear_125_13)"/>
<path d="M329 10H406V139L329 10Z" fill="black"/>
<mask id="path-4-outside-1_125_13" maskUnits="userSpaceOnUse" x="134.325" y="35.5726" width="151.554" height="87.5" fill="black">
<rect fill="white" x="134.325" y="35.5726" width="151.554" height="87.5"/>
<path fill-rule="evenodd" clip-rule="evenodd" d="M225.124 97.5324L254.366 80.6499C258.089 78.5 260.149 75.7573 260.545 72.9516L260.545 81.8906C261.037 85.3654 258.978 88.9377 254.366 91.6005L225.124 108.483C216.771 113.306 203.206 113.318 194.826 108.511L165.49 91.6837C161.113 89.1733 159.016 85.8448 159.201 82.5504L159.201 72.4021C159.372 75.429 161.468 78.4264 165.49 80.7331L194.826 97.5607C203.206 102.368 216.771 102.355 225.124 97.5324ZM159.201 71.5994C159.208 71.4721 159.219 71.345 159.233 71.2179L159.201 71.2103L159.201 71.5994ZM260.545 70.9401L260.545 70.4462L260.458 70.4462C260.493 70.6106 260.522 70.7752 260.545 70.9401Z"/>
</mask>
<path fill-rule="evenodd" clip-rule="evenodd" d="M225.124 97.5324L254.366 80.6499C258.089 78.5 260.149 75.7573 260.545 72.9516L260.545 81.8906C261.037 85.3654 258.978 88.9377 254.366 91.6005L225.124 108.483C216.771 113.306 203.206 113.318 194.826 108.511L165.49 91.6837C161.113 89.1733 159.016 85.8448 159.201 82.5504L159.201 72.4021C159.372 75.429 161.468 78.4264 165.49 80.7331L194.826 97.5607C203.206 102.368 216.771 102.355 225.124 97.5324ZM159.201 71.5994C159.208 71.4721 159.219 71.345 159.233 71.2179L159.201 71.2103L159.201 71.5994ZM260.545 70.9401L260.545 70.4462L260.458 70.4462C260.493 70.6106 260.522 70.7752 260.545 70.9401Z" fill="white"/>
<path d="M260.545 72.9515L267.282 72.9515C267.282 70.8652 264.43 69.1505 260.82 69.0656C257.209 68.9807 254.126 70.5557 253.832 72.6351L260.545 72.9515ZM260.545 81.8905L253.809 81.8905C253.809 81.9961 253.817 82.1016 253.832 82.2069L260.545 81.8905ZM194.826 108.511L199.573 105.752L199.573 105.752L194.826 108.511ZM165.49 91.6836L170.237 88.9247L170.237 88.9247L165.49 91.6836ZM159.201 82.5503L165.934 82.6764C165.936 82.6344 165.937 82.5924 165.937 82.5503L159.201 82.5503ZM159.201 72.402L165.934 72.2758C165.815 70.1536 162.769 68.4789 159.092 68.5134C155.415 68.5479 152.465 70.2787 152.465 72.402L159.201 72.402ZM165.49 80.733L170.237 77.9741L170.237 77.9741L165.49 80.733ZM194.826 97.5606L199.573 94.8017L199.573 94.8017L194.826 97.5606ZM159.201 71.5993L152.465 71.5993C152.465 73.7225 155.415 75.4534 159.092 75.4878C162.769 75.5223 165.815 73.8476 165.934 71.7255L159.201 71.5993ZM159.233 71.2178L165.956 71.464C166.138 69.8031 164.47 68.2593 161.806 67.6236L159.233 71.2178ZM159.201 71.2102L161.774 67.616C159.696 67.1201 157.326 67.2556 155.457 67.9774C153.588 68.6991 152.465 69.9118 152.465 71.2102L159.201 71.2102ZM260.545 70.94L253.832 71.2564C254.126 73.3358 257.209 74.9108 260.82 74.8259C264.43 74.7409 267.282 73.0263 267.282 70.94L260.545 70.94ZM260.545 70.4461L267.282 70.4461C267.282 68.2982 264.266 66.557 260.546 66.557L260.545 70.4461ZM260.458 70.4461L260.458 66.557C258.529 66.557 256.693 67.0344 255.415 67.8683C254.136 68.7022 253.538 69.8125 253.772 70.918L260.458 70.4461ZM249.603 77.8997L220.361 94.7822L229.888 100.282L259.129 83.3997L249.603 77.8997ZM253.832 72.6351C253.56 74.5546 252.157 76.4249 249.603 77.8997L259.129 83.3997C264.022 80.5749 266.737 76.9597 267.259 73.2679L253.832 72.6351ZM267.282 81.8905L267.282 72.9515L253.809 72.9515L253.809 81.8905L267.282 81.8905ZM259.129 94.3504C265.195 90.8479 267.905 86.1403 267.259 81.5741L253.832 82.2069C254.169 84.5903 252.76 87.0273 249.603 88.8504L259.129 94.3504ZM229.888 111.233L259.129 94.3504L249.603 88.8504L220.361 105.733L229.888 111.233ZM190.078 111.27C201.091 117.588 218.91 117.571 229.888 111.233L220.361 105.733C214.633 109.04 205.321 109.049 199.573 105.752L190.078 111.27ZM160.742 94.4425L190.078 111.27L199.573 105.752L170.237 88.9247L160.742 94.4425ZM152.469 82.4242C152.226 86.7545 154.987 91.1412 160.742 94.4425L170.237 88.9247C167.24 87.205 165.807 84.9348 165.934 82.6764L152.469 82.4242ZM152.465 72.402L152.465 82.5503L165.937 82.5503L165.937 72.402L152.465 72.402ZM170.237 77.9741C167.481 76.3927 166.051 74.3487 165.934 72.2758L152.469 72.5282C152.693 76.5091 155.456 80.4598 160.742 83.4919L170.237 77.9741ZM199.573 94.8017L170.237 77.9741L160.742 83.4919L190.078 100.32L199.573 94.8017ZM220.361 94.7822C214.633 98.0897 205.321 98.0984 199.573 94.8017L190.078 100.32C201.091 106.637 218.91 106.62 229.888 100.282L220.361 94.7822ZM165.934 71.7255C165.939 71.6383 165.946 71.5511 165.956 71.464L152.51 70.9715C152.492 71.1386 152.478 71.3058 152.469 71.473L165.934 71.7255ZM161.806 67.6236L161.774 67.616L156.628 74.8044L156.66 74.8119L161.806 67.6236ZM152.465 71.2102L152.465 71.5993L165.937 71.5993L165.937 71.2102L152.465 71.2102ZM267.282 70.94L267.282 70.4461L253.809 70.4461L253.809 70.94L267.282 70.94ZM260.546 66.557L260.458 66.557L260.458 74.3352L260.545 74.3352L260.546 66.557ZM253.772 70.918C253.796 71.0306 253.816 71.1434 253.832 71.2564L267.259 70.6236C267.229 70.4069 267.19 70.1903 267.145 69.9742L253.772 70.918Z" fill="black" mask="url(#path-4-outside-1_125_13)"/>
<path d="M256.755 76.2293L227.514 93.1118C217.845 98.6939 202.144 98.7086 192.444 93.1446L163.108 76.317C153.408 70.753 153.383 61.7173 163.051 56.1351L192.293 39.2526C201.961 33.6705 217.663 33.6558 227.362 39.2198L256.698 56.0474C266.398 61.6114 266.424 70.6472 256.755 76.2293Z" fill="white" stroke="black" stroke-width="5.5" stroke-linejoin="round"/>
<path d="M219.368 80.2098L217.191 81.4667C214.059 83.2752 208.972 83.28 205.829 81.4773L182.846 68.2939C179.704 66.4912 179.695 63.5638 182.828 61.7553L185.005 60.4983C188.137 58.6898 193.224 58.6851 196.367 60.4877L219.35 73.6711C222.493 75.4738 222.501 78.4012 219.368 80.2098Z" fill="#2630F7"/>
<path d="M237.905 70.1036L235.728 71.3606C232.595 73.1691 227.508 73.1739 224.366 71.3712L201.383 58.1878C198.24 56.3851 198.232 53.4577 201.364 51.6491L203.541 50.3922C206.674 48.5837 211.761 48.5789 214.903 50.3816L237.886 63.565C241.029 65.3677 241.037 68.2951 237.905 70.1036Z" fill="#2630F7"/>
<defs>
<linearGradient id="paint0_linear_125_13" x1="210.5" y1="11" x2="210.5" y2="139" gradientUnits="userSpaceOnUse">
<stop stop-color="#FF49F8"/>
<stop offset="1" stop-color="#FFB9FC"/>
</linearGradient>
</defs>
</svg>
