<svg width="1920" height="278" viewBox="0 0 1920 278" fill="none" xmlns="http://www.w3.org/2000/svg">
<path d="M0 278H1920V0H0V278Z" fill="black"/>
<path fill-rule="evenodd" clip-rule="evenodd" d="M99.7481 61.081C97.5086 61.3251 95.2319 62.0383 93.6818 62.9813C92.7026 63.577 91.353 64.8052 90.6291 65.7594C89.3197 67.485 88.3841 70.0895 88.0273 73.0015C87.7049 75.6333 87.806 81.3757 88.2255 84.2591C88.8446 88.5136 90.3531 92.1724 93.107 96.0987C93.5261 96.6961 95.5399 99.3479 97.5822 101.992C103.411 109.537 103.908 110.237 104.899 112.283C106.024 114.608 106.277 116.372 106.201 121.383C106.157 124.29 106.126 124.763 105.924 125.516C105.616 126.668 105.205 127.398 104.621 127.828C103.954 128.319 103.415 128.447 102.242 128.394C101.396 128.356 101.163 128.303 100.677 128.034C99.8347 127.567 99.3534 126.885 98.9875 125.64C98.8143 125.051 98.7933 124.289 98.7584 117.307L98.72 109.622H87.2602L87.3008 118.773C87.3449 128.715 87.329 128.431 87.9734 130.748C88.3042 131.938 89.1374 133.741 89.7733 134.644C90.4325 135.58 91.8862 136.959 92.8632 137.576C94.2638 138.461 96.025 139.1 98.0312 139.451C99.3502 139.682 103.895 139.779 105.496 139.609C109.964 139.137 113.147 137.411 115.364 134.259C116.435 132.738 117.178 131.029 117.745 128.788C118.423 126.105 118.491 125.311 118.491 120.104C118.491 116.879 118.448 115.08 118.35 114.293C117.775 109.667 116.5 106.436 113.589 102.236C113.113 101.549 110.673 98.2982 108.166 95.0125C105.659 91.7267 103.254 88.5266 102.822 87.901C101.309 85.7112 100.426 83.8798 99.9938 82.0324C99.8142 81.2656 99.7686 80.6106 99.725 78.1674C99.6658 74.8524 99.7495 73.9781 100.225 72.9427C100.722 71.8614 101.584 71.3876 103.054 71.3876C104.73 71.3876 105.796 72.3139 106.111 74.046C106.187 74.4596 106.228 76.8696 106.228 80.8576V87.0289H117.49L117.446 79.4527C117.408 73.0228 117.374 71.7121 117.222 70.7902C116.722 67.7596 115.817 65.7071 114.305 64.1735C112.776 62.6223 110.765 61.7034 107.834 61.2171C106.604 61.0128 101.207 60.922 99.7481 61.081ZM52.8898 138.841H64.4571V104.951H72.2757V138.841H83.9501V61.7205H72.2757V92.5685H64.4571V61.7205H52.8898V138.841ZM121.758 138.841H148.748V127.11H133.432V104.843H144.893V93.1116H133.432V72.9083H148.106V61.7205H121.758V138.841ZM168.879 61.9105C168.876 62.0151 166.79 79.3549 164.244 100.443L159.614 138.786L164.748 138.815C167.571 138.83 169.906 138.818 169.936 138.788C169.965 138.758 170.33 135.506 170.746 131.562L171.502 124.392L179.859 124.448L181.369 138.786L192.578 138.843L192.519 138.489C192.487 138.294 190.253 120.941 187.556 99.9275L182.651 61.7205H175.767C169.285 61.7205 168.884 61.7315 168.879 61.9105ZM194.375 138.841H205.942V104.408L207.361 104.411C210.39 104.417 211.612 104.691 212.314 105.522C213.11 106.466 213.052 105.35 213.125 120.973C213.171 130.976 213.227 135.202 213.317 135.745C213.508 136.89 213.741 137.754 214.005 138.298L214.243 138.786L225.757 138.842V138.573C225.757 138.424 225.616 137.943 225.443 137.504C224.712 135.635 224.758 136.742 224.685 119.452C224.624 104.997 224.605 103.749 224.43 102.996C223.845 100.489 222.693 98.8773 220.614 97.6582L219.754 97.1539L220.372 96.8027C220.712 96.6096 221.406 96.027 221.913 95.5079C222.696 94.708 222.921 94.3915 223.389 93.4306C224.039 92.096 224.421 90.6628 224.585 88.9477C224.661 88.1515 224.687 84.9181 224.659 79.5341C224.614 70.6209 224.604 70.457 223.976 68.3463C222.855 64.5779 220.198 62.4708 215.825 61.8803C214.893 61.7547 212.717 61.7243 204.523 61.7226L194.375 61.7205V138.841ZM226.721 72.9083H236.467V138.841H247.927V72.9083H257.674V61.7205H226.721V72.9083ZM277.551 62.127C277.516 62.3514 275.44 79.545 272.938 100.335C270.435 121.125 268.361 138.293 268.328 138.488L268.267 138.841H273.467C276.327 138.841 278.666 138.828 278.666 138.812C278.666 138.796 279.004 135.608 279.416 131.726C279.828 127.844 280.166 124.607 280.166 124.531C280.166 124.423 281.047 124.394 284.338 124.394H288.51L288.569 124.747C288.644 125.203 290.019 138.371 290.019 138.638C290.019 138.833 290.228 138.841 295.644 138.841H301.268L301.205 138.433C301.171 138.209 298.938 120.869 296.244 99.9004L291.345 61.7748L277.614 61.7188L277.551 62.127ZM303.086 138.841H313.475V116.827C313.475 104.72 313.5 94.8383 313.53 94.8688C313.56 94.8993 315.997 104.622 318.944 116.475C321.892 128.328 324.352 138.209 324.41 138.433L324.515 138.841H333.932V61.7205H323.436L323.427 82.2768C323.423 93.5828 323.39 102.76 323.356 102.67C323.32 102.581 321.094 93.3424 318.409 82.141L313.525 61.7748L303.086 61.7184V138.841ZM338.216 138.841H347.869C358.333 138.841 358.665 138.825 360.677 138.234C364.859 137.005 367.422 133.94 368.413 128.983C368.917 126.467 368.902 127.344 368.902 99.9547C368.902 75.9313 368.888 73.9536 368.716 72.7377C367.804 66.3121 365.044 63.1013 359.463 61.9752C358.603 61.8017 357.545 61.78 348.365 61.7477L338.216 61.7121V138.841ZM211.13 72.5259C211.833 72.7911 212.493 73.4779 212.81 74.2762L213.065 74.9178L213.096 82.0867C213.118 87.0112 213.09 89.4819 213.008 89.9783C212.755 91.5035 211.93 92.6701 210.781 93.1262C210.245 93.3389 209.923 93.3729 208.058 93.4138L205.942 93.4602V72.2382L208.272 72.2824C210.192 72.3188 210.694 72.3616 211.13 72.5259ZM354.568 72.419C355.577 72.7227 356.286 73.5713 356.727 74.9999C356.886 75.5188 356.905 77.686 356.937 99.3573C356.963 117.09 356.94 123.352 356.847 123.96C356.67 125.11 356.379 125.821 355.833 126.438C354.999 127.378 353.995 127.651 351.363 127.652L349.784 127.653V72.2566H351.906C353.478 72.2566 354.169 72.2987 354.568 72.419ZM177.077 98.5426C177.872 105.98 178.549 112.225 178.582 112.419L178.64 112.772H172.62L172.684 112.31C172.738 111.917 175.502 85.3294 175.537 84.8594C175.548 84.715 175.555 84.7146 175.59 84.8565C175.612 84.9461 176.281 91.1049 177.077 98.5426ZM285.824 99.0857L287.292 112.718L284.355 112.746C282.74 112.762 281.4 112.756 281.376 112.732C281.332 112.687 284.065 86.1514 284.203 85.291C284.271 84.8632 284.285 84.8429 284.318 85.1281C284.338 85.3073 285.016 91.5882 285.824 99.0857ZM129.148 142.214C127.255 142.422 125.057 143.026 123.739 143.702C121.67 144.763 119.973 146.494 118.921 148.616C117.542 151.397 117.059 154.563 117.19 159.967C117.262 162.964 117.373 164.341 117.695 166.213C118.262 169.517 119.434 172.54 121.306 175.531C122.306 177.129 122.692 177.651 127.11 183.375C132.69 190.604 133.329 191.505 134.239 193.421C135.299 195.653 135.48 196.693 135.547 200.936C135.636 206.531 135.24 208.243 133.644 209.161C133.082 209.484 133.006 209.498 131.826 209.498C130.662 209.498 130.563 209.48 130.023 209.177C129.346 208.797 128.993 208.399 128.64 207.62C128.117 206.467 128.085 205.925 128.081 198.066L128.077 190.761H116.607L116.647 199.967C116.691 209.963 116.673 209.637 117.316 211.888C118.153 214.817 119.704 217.035 121.979 218.555C123.475 219.554 125.21 220.206 127.433 220.605C128.964 220.879 134.659 220.87 136.164 220.591C138.247 220.205 140.003 219.528 141.492 218.536C144.79 216.34 146.775 212.73 147.59 207.443C147.866 205.657 147.986 199.415 147.794 196.876C147.446 192.274 146.508 189.18 144.388 185.638C143.116 183.512 142.84 183.135 135.64 173.708C131.511 168.301 130.402 166.568 129.692 164.411C129.129 162.701 129.018 161.611 129.066 158.261C129.104 155.584 129.131 155.228 129.339 154.591C129.781 153.241 130.548 152.659 132.02 152.557C133.675 152.442 134.719 153.044 135.264 154.428L135.52 155.079L135.585 168.168H146.821L146.82 161.678C146.818 153.178 146.703 151.601 145.9 149.16C145.346 147.472 144.801 146.568 143.607 145.358C143.048 144.79 142.316 144.163 141.981 143.964C140.724 143.216 139.113 142.677 137.181 142.356C135.97 142.155 130.56 142.06 129.148 142.214ZM179.22 142.165C176.359 142.455 173.876 143.337 172.089 144.7C169.184 146.918 167.486 150.374 166.83 155.405C166.716 156.28 166.688 161.594 166.688 182.723V208.955L166.929 210.299C167.816 215.242 170.386 218.918 173.924 220.301C175.404 220.88 176.057 220.994 177.934 221C179.831 221.006 180.507 220.886 181.91 220.293C184.503 219.198 187.21 216.412 188.588 213.419L188.983 212.56L189.321 213.799C189.507 214.48 189.937 216.149 190.277 217.508L190.894 219.979L197.482 219.98L197.427 173.11L181.308 173.055V185.004H186.454L186.396 205.913L186.146 206.542C185.448 208.294 184.16 209.149 182.217 209.15C180.767 209.151 179.801 208.529 179.126 207.159C178.435 205.759 178.47 207.162 178.47 180.985C178.47 158.697 178.482 157.095 178.656 156.409C179.186 154.32 180.075 153.489 181.861 153.414C183.899 153.328 184.944 154.109 185.467 156.109C185.592 156.583 185.634 157.817 185.671 162.004L185.717 167.299H196.965L196.916 161.189C196.865 154.903 196.818 154.124 196.353 151.848C196.104 150.629 195.577 149.089 195.062 148.073C193.442 144.883 190.793 143.091 186.613 142.357C185.684 142.194 180.315 142.055 179.22 142.165ZM258.584 142.22C256.345 142.464 254.068 143.177 252.518 144.12C251.539 144.716 250.189 145.944 249.465 146.898C248.156 148.624 247.22 151.229 246.863 154.141C246.541 156.772 246.642 162.515 247.062 165.398C247.626 169.278 248.967 172.727 251.263 176.206C251.874 177.132 254.293 180.374 256.638 183.411C262.242 190.671 262.868 191.559 263.855 193.664C264.866 195.819 265.109 197.622 265.037 202.451C264.993 205.433 264.963 205.899 264.761 206.655C264.166 208.877 263.152 209.649 260.979 209.533C259.293 209.443 258.369 208.637 257.824 206.779C257.65 206.19 257.629 205.428 257.595 198.446L257.556 190.761H246.096L246.137 199.912C246.181 209.861 246.164 209.561 246.812 211.888C247.145 213.082 247.977 214.885 248.609 215.783C249.263 216.711 250.72 218.097 251.676 218.7C253.088 219.591 254.753 220.198 256.817 220.576C258.17 220.824 262.649 220.926 264.332 220.748C268.8 220.276 271.983 218.551 274.201 215.398C275.271 213.877 276.014 212.169 276.581 209.927C277.259 207.244 277.327 206.45 277.327 201.243C277.327 198.018 277.284 196.219 277.186 195.432C276.612 190.808 275.34 187.586 272.427 183.375C271.951 182.688 269.511 179.437 267.003 176.152C264.495 172.866 262.09 169.666 261.658 169.04C260.144 166.849 259.262 165.018 258.83 163.172C258.65 162.405 258.605 161.75 258.561 159.306C258.502 155.992 258.586 155.117 259.061 154.082C259.558 153.001 260.42 152.527 261.89 152.527C263.288 152.527 264.361 153.249 264.797 154.483C264.996 155.046 265.009 155.44 265.04 161.624L265.073 168.168H276.31V161.504C276.31 153.148 276.19 151.531 275.387 149.094C274.128 145.27 271.353 143.113 266.724 142.361C265.436 142.152 260.063 142.059 258.584 142.22ZM292.054 142.212C288.968 142.586 286.515 143.666 284.614 145.487C282.073 147.921 280.718 151.274 280.38 155.966C280.245 157.83 280.245 204.321 280.379 206.426C280.803 213.064 283.052 217.282 287.288 219.386C289.537 220.504 291.216 220.843 294.915 220.927C299.172 221.023 301.505 220.666 303.759 219.57C307.305 217.846 309.463 214.701 310.41 209.878C310.874 207.519 310.905 206.667 310.905 196.282V186.416H299.56L299.526 196.219C299.492 205.762 299.486 206.041 299.271 206.746C298.85 208.127 298.019 209.051 296.934 209.348C296.252 209.534 294.656 209.42 294.138 209.147C293.169 208.637 292.523 207.569 292.269 206.058C292.188 205.576 292.163 197.98 292.184 180.714L292.215 156.057L292.456 155.409C292.768 154.569 293.183 154.06 293.83 153.722C294.305 153.474 294.471 153.45 295.693 153.45C296.945 153.45 297.071 153.47 297.585 153.744C298.643 154.311 299.213 155.286 299.436 156.916C299.509 157.446 299.552 160.382 299.552 164.863V171.97H310.917L310.877 163.199C310.833 153.689 310.828 153.598 310.202 151.153C308.917 146.139 305.858 143.376 300.518 142.406C299.492 142.22 298.742 142.176 296.071 142.148C294.304 142.13 292.496 142.158 292.054 142.212ZM362.167 142.219C356.529 142.821 352.931 145.483 350.968 150.501C350.212 152.432 349.737 154.993 349.573 158.012C349.434 160.559 349.432 201.97 349.57 204.61C349.848 209.938 351.027 213.714 353.253 216.406C354.887 218.383 356.905 219.625 359.674 220.359C361.471 220.834 362.198 220.902 365.474 220.9C368.188 220.898 368.743 220.868 369.866 220.662C376.469 219.453 379.815 215.383 380.921 207.217C381.099 205.896 381.112 204.218 381.112 181.311C381.112 158.44 381.099 156.725 380.921 155.418C379.783 147.05 375.919 142.948 368.482 142.215C367.141 142.082 363.417 142.085 362.167 142.219ZM397.874 142.164C394.828 142.525 392.923 143.11 391.176 144.223C387.81 146.366 385.966 149.654 385.056 155.134C384.88 156.196 384.864 157.939 384.83 180.442C384.793 205.061 384.804 205.968 385.193 208.303C386.27 214.781 389.337 218.734 394.446 220.232C396.406 220.807 397.25 220.896 400.712 220.896C403.362 220.896 404.113 220.861 404.996 220.698C411.363 219.517 414.806 215.71 415.97 208.561C416.407 205.878 416.418 205.116 416.378 180.279C416.343 158.286 416.325 156.283 416.154 155.134C415.003 147.387 411.664 143.563 404.996 142.355C404.171 142.206 398.75 142.06 397.874 142.164ZM52.8898 219.98H62.5423C70.7086 219.98 72.3669 219.954 73.3128 219.811C78.7284 218.996 81.895 215.905 83.0809 210.277C83.589 207.866 83.5753 208.677 83.5753 181.039C83.5753 156.53 83.5638 154.894 83.3833 153.689C82.8681 150.246 81.9441 148.045 80.2628 146.254C78.9289 144.832 77.6642 144.084 75.5451 143.461C73.5967 142.888 72.9766 142.86 62.5238 142.86H52.8898V219.98ZM87.6988 219.98H114.582V208.249H99.2661V185.982H110.833V174.251H99.2661V154.047H113.939V142.86H87.6988V219.98ZM151.105 219.98H162.672V142.86H151.105V219.98ZM201.444 219.98H211.94L211.994 176.222L217.235 197.313C220.118 208.914 222.569 218.759 222.683 219.192L222.889 219.98H232.29V142.86H221.794L221.787 163.416C221.783 174.722 221.744 183.874 221.7 183.755C221.656 183.636 219.43 174.385 216.753 163.199L211.887 142.86L201.444 142.86V219.98ZM314.546 219.98H326.114V186.09H333.932V219.98H345.607V142.86H333.932V173.708H326.114V142.86H314.546V219.98ZM420.366 219.98H446.071V208.032H431.933V142.86H420.366V219.98ZM69.5993 153.677C70.5717 154.133 71.1426 154.999 71.5032 156.564C71.6734 157.303 71.6867 159.065 71.6867 180.985C71.6867 203.669 71.6787 204.645 71.4867 205.479C71.1288 207.034 70.5718 207.84 69.5176 208.33C68.7687 208.677 67.9382 208.787 66.0369 208.79L64.4571 208.792V153.381L66.7866 153.415C68.8802 153.447 69.1651 153.473 69.5993 153.677ZM367.226 153.775C368.19 154.312 368.797 155.259 369.144 156.766C369.318 157.525 369.33 159.128 369.33 181.365C369.33 203.915 369.32 205.201 369.136 206.065C368.773 207.772 367.957 208.895 366.794 209.287C365.942 209.574 364.363 209.473 363.573 209.081C362.881 208.738 362.318 208.13 361.951 207.33C361.376 206.077 361.405 207.451 361.405 181.365C361.405 158.166 361.413 157.11 361.602 156.36C361.967 154.918 362.706 154.003 363.836 153.596C364.285 153.434 364.639 153.398 365.528 153.423C366.538 153.453 366.711 153.488 367.226 153.775ZM402.435 153.747C403.432 154.271 404.153 155.416 404.426 156.909C404.541 157.539 404.568 162.217 404.568 181.583V205.479L404.325 206.402C404.024 207.55 403.512 208.41 402.854 208.872C402.169 209.352 401.638 209.474 400.444 209.424C399.648 209.392 399.312 209.326 398.899 209.123C397.752 208.557 397.045 207.428 396.751 205.692C396.603 204.82 396.588 202.012 396.616 180.872C396.646 158.227 396.657 157.002 396.841 156.387C397.205 155.172 397.668 154.432 398.348 153.975C399.051 153.503 399.529 153.396 400.765 153.43C401.735 153.457 401.965 153.501 402.435 153.747Z" fill="white"/>
<path d="M1671.88 156.259V178.769H1687.88C1693.21 178.769 1694.89 176.888 1694.89 172.218C1694.89 167.19 1692.66 165.568 1687.04 165.568H1674.21V158.53H1692.99V156.259H1671.88ZM1674.21 167.839H1687.72C1691.34 167.839 1692.57 168.909 1692.57 172.282C1692.57 175.753 1691.24 176.499 1687.94 176.499H1674.21V167.839Z" fill="#FF49F8"/>
<path d="M1722.38 176.499H1700.27V174.553C1700.27 172.347 1701.63 170.336 1706.19 170.336H1714.27C1720.89 170.336 1722.38 168.325 1722.38 163.59C1722.38 157.816 1720.57 156 1714.3 156H1706.22C1700.79 156 1698.14 157.946 1698.14 162.292H1700.66C1700.66 159.73 1701.79 158.27 1706.19 158.27H1714.27C1718.99 158.27 1720.05 159.698 1720.05 163.59C1720.05 166.963 1718.7 168.066 1714.3 168.066H1706.22C1700.47 168.066 1697.95 170.596 1697.95 174.553V178.769H1722.38V176.499Z" fill="#FF49F8"/>
<path d="M1750.44 176.499H1728.33V174.553C1728.33 172.347 1729.69 170.336 1734.25 170.336H1742.33C1748.95 170.336 1750.44 168.325 1750.44 163.59C1750.44 157.816 1748.63 156 1742.36 156H1734.28C1728.85 156 1726.2 157.946 1726.2 162.292H1728.72C1728.72 159.73 1729.85 158.27 1734.25 158.27H1742.33C1747.05 158.27 1748.11 159.698 1748.11 163.59C1748.11 166.963 1746.76 168.066 1742.36 168.066H1734.28C1728.53 168.066 1726.01 170.596 1726.01 174.553V178.769H1750.44V176.499Z" fill="#FF49F8"/>
<path d="M1777.69 176.499H1757.75C1759.56 175.299 1760.21 172.639 1760.21 170.109V158.53H1777.69V176.499ZM1780.02 156.259H1757.88V170.726C1757.88 173.515 1756.78 175.202 1754.97 176.499H1753.78V184.867H1755.97V178.769H1779.67V184.867H1781.86V176.499H1780.02V156.259Z" fill="#FF49F8"/>
<path d="M1794.73 168.26H1801.68C1805.04 168.26 1806.66 168.52 1806.66 172.153C1806.66 175.461 1805.27 176.499 1801.68 176.499H1793.05C1790.01 176.499 1787.85 175.461 1787.72 172.412H1785.39C1785.39 176.758 1787.78 178.769 1793.05 178.769H1801.16C1805.5 178.769 1808.99 177.472 1808.99 172.153C1808.99 167.093 1805.82 167.158 1805.82 167.028C1805.82 166.963 1808.99 166.639 1808.99 161.838C1808.99 157.233 1805.11 156.259 1801.16 156.259H1793.02C1785.52 156.259 1785.39 161.352 1785.39 162.747H1787.78C1787.78 159.892 1789.79 158.53 1793.02 158.53H1801.65C1805.04 158.53 1806.66 159.957 1806.66 162.228C1806.66 165.341 1804.85 165.99 1801.68 165.99H1794.73V168.26Z" fill="#FF49F8"/>
<path d="M1828.06 178.769V156.259H1824.51L1817.85 163.006L1819.46 164.563L1825.54 158.595V178.769H1828.06Z" fill="#FF49F8"/>
<path d="M1864.78 163.849V171.05C1864.78 175.429 1863.72 176.499 1859 176.499H1849.17C1844.81 176.499 1843.19 175.364 1843.19 171.05V163.849C1843.19 159.471 1844.97 158.27 1849.17 158.27H1859C1863.46 158.27 1864.78 159.406 1864.78 163.849ZM1867.11 171.05V164.044C1867.11 157.492 1864.46 156 1859.03 156H1849.2C1842.87 156 1840.87 158.27 1840.87 164.044V171.05C1840.87 176.823 1843.13 178.769 1849.2 178.769H1859.03C1864.98 178.769 1867.11 177.472 1867.11 171.05Z" fill="#FF49F8"/>
<path d="M1497.85 208.026C1497.85 210.88 1496.33 212.178 1492.06 212.178H1482.24C1477.78 212.178 1476.26 210.88 1476.26 206.404V199.917C1476.26 195.311 1477.68 193.949 1482.24 193.949H1492.06C1496.52 193.949 1497.85 195.571 1497.85 198.101H1500.17C1500.17 193.754 1497.46 191.679 1492.03 191.679H1482.2C1476.19 191.679 1473.93 193.949 1473.93 199.917V206.404C1473.93 212.178 1476.19 214.448 1482.2 214.448H1492.03C1497.98 214.448 1500.17 212.243 1500.17 208.026H1497.85Z" fill="#FF49F8"/>
<path d="M1506.25 206.469H1508.74L1518.37 214.448H1521.74L1510.81 205.561L1520.9 198.425H1517.18L1508.78 204.523H1506.25V198.425H1503.93V214.448H1506.25V206.469Z" fill="#FF49F8"/>
<path d="M1523.78 198.425V221H1526.1V212.729C1526.23 212.924 1527.43 214.448 1530.76 214.448H1537.03C1541.78 214.448 1543.82 211.886 1543.82 208.221V204.718C1543.82 201.312 1542.13 198.425 1537.03 198.425H1530.56C1527.4 198.425 1526.23 199.95 1526.1 200.144V198.425H1523.78ZM1526.1 204.718C1526.1 202.252 1527.59 200.371 1531.02 200.371H1536.19C1539.61 200.371 1541.49 201.734 1541.49 204.718V208.221C1541.49 211.334 1539.65 212.502 1536.19 212.502H1530.98C1527.56 212.502 1526.1 210.621 1526.1 208.221V204.718Z" fill="#FF49F8"/>
<path d="M1549.34 198.425H1547.01V214.448H1561.36C1564.79 214.448 1566.73 213.151 1566.73 210.361V208.415C1566.73 206.21 1565.24 204.653 1561.75 204.653H1549.34V198.425ZM1549.34 206.599H1560.91C1563.82 206.599 1564.4 207.442 1564.4 208.934V210.102C1564.4 211.529 1563.72 212.502 1560.87 212.502H1549.34V206.599ZM1572.61 198.425H1570.28V214.448H1572.61V198.425Z" fill="#FF49F8"/>
<path d="M1578.76 206.923H1594.21V214.448H1596.53V198.425H1594.21V204.977H1578.76V198.425H1576.43V214.448H1578.76V206.923Z" fill="#FF49F8"/>
<path d="M1602.62 206.923H1618.07V214.448H1620.39V198.425H1618.07V204.977H1602.62V198.425H1600.29V214.448H1602.62V206.923Z" fill="#FF49F8"/>
<path d="M1626.48 198.425H1624.15V214.448H1628.13L1641.28 200.242H1641.93V214.448H1644.26V198.425H1640.38L1627.22 212.632H1626.48V198.425Z" fill="#FF49F8"/>
<path d="M1650.34 206.469H1652.83L1662.46 214.448H1665.82L1654.9 205.561L1664.98 198.425H1661.27L1652.86 204.523H1650.34V198.425H1648.02V214.448H1650.34V206.469Z" fill="#FF49F8"/>
<path d="M1667.61 204.653V208.156C1667.61 212.243 1669.87 214.448 1674.59 214.448H1680.95C1686.13 214.448 1687.97 211.529 1687.97 208.156V204.653C1687.97 201.312 1686.29 198.36 1680.99 198.36H1674.59C1669.55 198.36 1667.61 201.117 1667.61 204.653ZM1669.93 208.156V204.653C1669.93 201.539 1671.58 200.306 1674.75 200.306H1680.83C1683.93 200.306 1685.64 201.863 1685.64 204.653V208.156C1685.64 211.269 1683.7 212.502 1680.79 212.502H1674.75C1671.58 212.502 1669.93 211.075 1669.93 208.156Z" fill="#FF49F8"/>
<path d="M1693.59 200.306H1705.58C1707.52 200.306 1708.62 201.085 1708.62 202.512V203.161C1708.62 204.653 1707.58 205.366 1705.64 205.366H1693.59V200.306ZM1691.26 214.448H1705.61C1709.62 214.448 1711.36 212.859 1711.36 210.296V209.583C1711.36 208.221 1710.52 206.761 1708.42 206.274C1709.88 206.015 1710.94 204.912 1710.94 203.161V202.512C1710.94 200.014 1709.2 198.36 1705.25 198.36H1691.26V214.448ZM1693.59 207.312H1705.19C1708.62 207.312 1709.04 208.285 1709.04 209.583V210.296C1709.04 211.724 1707.81 212.502 1705.55 212.502H1693.59V207.312Z" fill="#FF49F8"/>
<path d="M1714.73 208.415V210.361C1714.73 213.151 1716.67 214.448 1720.1 214.448H1729.15C1731.09 214.448 1731.99 213.151 1731.99 213.151V214.448H1734.32V204.069C1734.32 200.566 1732.64 198.425 1728.31 198.425H1721.29C1715.83 198.425 1715.54 201.117 1715.54 203.031H1717.93C1717.93 201.571 1718.13 200.371 1721.88 200.371H1728.05C1730.83 200.371 1731.99 201.863 1731.99 203.68V205.918C1731.99 205.918 1731.67 204.653 1729.02 204.653H1719.71C1716.22 204.653 1714.73 206.21 1714.73 208.415ZM1720.55 206.599H1728.44C1730.7 206.599 1731.99 207.507 1731.99 209.518C1731.99 211.529 1730.86 212.502 1728.44 212.502H1720.55C1717.77 212.502 1717.06 211.529 1717.06 210.102V208.934C1717.06 207.442 1717.64 206.599 1720.55 206.599Z" fill="#FF49F8"/>
<path d="M1771.82 212.178H1751.88C1753.69 210.978 1754.34 208.318 1754.34 205.788V194.209H1771.82V212.178ZM1774.15 191.938H1752.01V206.404C1752.01 209.194 1750.91 210.88 1749.1 212.178H1747.9V220.546H1750.1V214.448H1773.79V220.546H1775.99V212.178H1774.15V191.938Z" fill="#FF49F8"/>
<path d="M1778.74 208.415V210.361C1778.74 213.151 1780.68 214.448 1784.11 214.448H1793.16C1795.1 214.448 1796 213.151 1796 213.151V214.448H1798.33V204.069C1798.33 200.566 1796.65 198.425 1792.32 198.425H1785.31C1779.84 198.425 1779.55 201.117 1779.55 203.031H1781.94C1781.94 201.571 1782.14 200.371 1785.89 200.371H1792.06C1794.84 200.371 1796 201.863 1796 203.68V205.918C1796 205.918 1795.68 204.653 1793.03 204.653H1783.72C1780.23 204.653 1778.74 206.21 1778.74 208.415ZM1784.56 206.599H1792.45C1794.71 206.599 1796 207.507 1796 209.518C1796 211.529 1794.87 212.502 1792.45 212.502H1784.56C1781.78 212.502 1781.07 211.529 1781.07 210.102V208.934C1781.07 207.442 1781.65 206.599 1784.56 206.599Z" fill="#FF49F8"/>
<path d="M1801.85 198.425V221H1804.18V212.729C1804.31 212.924 1805.5 214.448 1808.83 214.448H1815.1C1819.86 214.448 1821.89 211.886 1821.89 208.221V204.718C1821.89 201.312 1820.21 198.425 1815.1 198.425H1808.64C1805.47 198.425 1804.31 199.95 1804.18 200.144V198.425H1801.85ZM1804.18 204.718C1804.18 202.252 1805.67 200.371 1809.09 200.371H1814.26C1817.69 200.371 1819.56 201.734 1819.56 204.718V208.221C1819.56 211.334 1817.72 212.502 1814.26 212.502H1809.06C1805.63 212.502 1804.18 210.621 1804.18 208.221V204.718Z" fill="#FF49F8"/>
<path d="M1827.41 198.425H1825.09V214.448H1839.44C1842.86 214.448 1844.8 213.151 1844.8 210.361V208.415C1844.8 206.21 1843.31 204.653 1839.82 204.653H1827.41V198.425ZM1827.41 206.599H1838.98C1841.89 206.599 1842.47 207.442 1842.47 208.934V210.102C1842.47 211.529 1841.8 212.502 1838.95 212.502H1827.41V206.599Z" fill="#FF49F8"/>
<path d="M1864.04 208.221V214.448H1866.37V198.425H1852.05C1848.62 198.425 1846.68 199.723 1846.68 202.512V204.458C1846.68 206.664 1848.17 208.221 1851.66 208.221H1852.34L1845.29 214.448H1848.59L1855.05 208.221H1864.04ZM1864.04 206.274H1852.5C1849.59 206.274 1849.01 205.431 1849.01 203.939V202.771C1849.01 201.344 1849.69 200.371 1852.53 200.371H1864.04V206.274Z" fill="#FF49F8"/>
</svg>
