<svg width="1738" height="899" viewBox="0 0 1738 899" fill="none" xmlns="http://www.w3.org/2000/svg">
<path fill-rule="evenodd" clip-rule="evenodd" d="M32 0.835083C14.3269 0.835083 0 15.162 0 32.8351V866.165C0 883.838 14.3269 898.165 32 898.165H1706C1723.67 898.165 1738 883.838 1738 866.165V32.8351C1738 15.162 1723.67 0.835083 1706 0.835083H32ZM45.1766 20.6001C27.5035 20.6001 13.1766 34.9269 13.1766 52.6V846.4C13.1766 864.073 27.5035 878.4 45.1766 878.4H1692.82C1710.5 878.4 1724.82 864.073 1724.82 846.4V52.6001C1724.82 34.9269 1710.5 20.6001 1692.82 20.6001H45.1766Z" fill="url(#paint0_linear_108_450)"/>
<defs>
<linearGradient id="paint0_linear_108_450" x1="869" y1="0.835083" x2="869" y2="898.165" gradientUnits="userSpaceOnUse">
<stop stop-color="#D3FF8C"/>
<stop offset="1"/>
</linearGradient>
</defs>
</svg>
