<svg width="525" height="722" viewBox="0 0 525 722" fill="none" xmlns="http://www.w3.org/2000/svg">
<path d="M524.424 0H413.607V547.527L423.16 566.758L462.624 550.446C500.028 534.986 524.424 498.503 524.424 458.03V0Z" fill="white"/>
<path d="M384 0H414.607V446.845C397.703 446.845 384 433.142 384 416.238V0Z" fill="white"/>
<path d="M411 407.388H434.219V445.382C421.395 445.382 411 434.987 411 422.163V407.388Z" fill="#2630F7"/>
<ellipse rx="11.6095" ry="7.91554" transform="matrix(-1 0 0 1 422.61 407.916)" fill="#2630F7"/>
<path d="M107.897 584.749C106.744 578.885 112.194 573.874 117.941 575.513L173.611 591.389C179.622 593.103 181.433 600.739 176.832 604.97L132.328 645.897C127.727 650.128 120.269 647.685 119.063 641.551L107.897 584.749Z" fill="#D3FF8C"/>
<path d="M404.412 338.867C404.924 332.913 398.965 328.52 393.429 330.77L339.801 352.569C334.01 354.923 333.035 362.711 338.066 366.42L386.732 402.297C391.764 406.006 398.914 402.771 399.45 396.543L404.412 338.867Z" fill="#D3FF8C"/>
<path d="M397.833 351.552C398.345 345.598 392.386 341.205 386.85 343.455L344.756 360.566C338.966 362.92 337.99 370.707 343.022 374.416L381.22 402.577C386.251 406.286 393.402 403.051 393.938 396.823L397.833 351.552Z" fill="#2630F7"/>
<rect x="83.7656" y="333.347" width="354.616" height="327.176" rx="160" fill="#D3FF8C"/>
<path d="M376.309 434.666H396.805C401.224 434.666 404.805 438.248 404.805 442.666V474.159C404.805 478.578 401.224 482.159 396.805 482.159H376.309V434.666Z" fill="black"/>
<rect x="269.573" y="398.838" width="115.984" height="170.865" rx="41" fill="#2630F7" stroke="#D3FF8C" stroke-width="2"/>
<rect x="297.154" y="433.611" width="30.6068" height="101.319" rx="8" fill="black"/>
<rect x="341.481" y="433.611" width="25.3297" height="101.319" rx="8" fill="black"/>
<path d="M151.926 335.514C151.122 329.593 156.859 324.912 162.498 326.888L217.133 346.027C223.032 348.093 224.388 355.824 219.546 359.775L172.7 397.999C167.857 401.951 160.556 399.071 159.715 392.878L151.926 335.514Z" fill="#D3FF8C"/>
<path d="M164.901 350.587C163.821 344.709 169.331 339.765 175.057 341.474L210.331 352.002C216.321 353.79 218.038 361.448 213.386 365.622L184.77 391.299C180.117 395.473 172.689 392.939 171.559 386.791L164.901 350.587Z" fill="#2630F7"/>
<path d="M159.934 635.471C157.652 629.948 162.01 623.964 167.967 624.442L225.671 629.07C231.902 629.57 235.178 636.701 231.499 641.754L195.903 690.627C192.224 695.68 184.43 694.749 182.043 688.972L159.934 635.471Z" fill="#D3FF8C"/>
<path d="M392.18 609.401C394.282 603.746 389.605 597.888 383.624 598.684L323.071 606.752C317.734 607.463 314.609 613.136 316.86 618.027L348.703 687.209C351.681 693.677 360.989 693.326 363.469 686.651L392.18 609.401Z" fill="#D3FF8C"/>
<rect x="216.943" y="434.666" width="37.9946" height="47.4932" rx="8" fill="black"/>
<path d="M0 0H111V550.659L101.431 570L61.6682 553.498C24.3345 538.003 0 501.557 0 461.136V0Z" fill="white"/>
<path d="M141 0H111V458C127.569 458 141 444.569 141 428V0Z" fill="white"/>
<path d="M134.036 407.226H110.817V445.22C123.641 445.22 134.036 434.825 134.036 422.001V407.226Z" fill="#2630F7"/>
<ellipse cx="122.427" cy="407.753" rx="11.6095" ry="7.91554" fill="#2630F7"/>
<path d="M83.3769 566.592C83.3769 566.592 65.4351 553.927 58.575 499.046" stroke="black" stroke-width="2" stroke-linecap="round"/>
<path d="M85.3723 566.232C85.3723 566.232 67.0831 554.074 58.6904 499.406" stroke="black" stroke-width="2" stroke-linecap="round"/>
<path d="M83.3771 566.592C83.3771 566.592 65.4352 553.927 58.5751 499.046" stroke="black" stroke-width="3" stroke-linecap="round"/>
<path d="M58.1194 558.187C58.1194 558.187 41.1784 544.212 38.4556 488.971" stroke="black" stroke-width="2" stroke-linecap="round"/>
<path d="M60.1361 557.978C60.1361 557.978 42.8108 544.482 38.5437 489.339" stroke="black" stroke-width="2" stroke-linecap="round"/>
<path d="M35.2482 542.53C35.2482 542.53 18.5964 528.211 17.0029 472.926" stroke="black" stroke-width="2" stroke-linecap="round"/>
<path d="M37.2689 542.361C37.2689 542.361 20.223 528.514 17.0836 473.295" stroke="black" stroke-width="2" stroke-linecap="round"/>
<path d="M435.523 566.592C435.523 566.592 453.465 553.927 460.325 499.046" stroke="black" stroke-width="2" stroke-linecap="round"/>
<path d="M433.528 566.232C433.528 566.232 451.817 554.074 460.209 499.406" stroke="black" stroke-width="2" stroke-linecap="round"/>
<path d="M435.523 566.592C435.523 566.592 453.465 553.927 460.325 499.046" stroke="black" stroke-width="3" stroke-linecap="round"/>
<path d="M460.78 558.187C460.78 558.187 477.721 544.212 480.444 488.971" stroke="black" stroke-width="2" stroke-linecap="round"/>
<path d="M458.764 557.978C458.764 557.978 476.089 544.482 480.356 489.339" stroke="black" stroke-width="2" stroke-linecap="round"/>
<path d="M483.651 542.53C483.651 542.53 500.303 528.211 501.897 472.926" stroke="black" stroke-width="2" stroke-linecap="round"/>
<path d="M481.631 542.361C481.631 542.361 498.677 528.514 501.816 473.295" stroke="black" stroke-width="2" stroke-linecap="round"/>
</svg>
