<svg width="394" height="160" viewBox="0 0 394 160" fill="none" xmlns="http://www.w3.org/2000/svg">
<path fill-rule="evenodd" clip-rule="evenodd" d="M46.9559 0.0810069C44.7118 0.325076 42.4303 1.03827 40.8769 1.98131C39.8957 2.57699 38.5433 3.80515 37.8179 4.75938C36.5058 6.48502 35.5682 9.08951 35.2107 12.0015C34.8876 14.6333 34.9889 20.3757 35.4093 23.2591C36.0297 27.5136 37.5413 31.1724 40.301 35.0987C40.721 35.6961 42.739 38.3479 44.7855 40.9917C50.6265 48.5375 51.1247 49.2369 52.1174 51.2831C53.2453 53.608 53.4982 55.3718 53.4224 60.3832C53.3785 63.2905 53.3467 63.7629 53.145 64.5157C52.836 65.6685 52.4243 66.3976 51.8393 66.8277C51.1708 67.3189 50.6303 67.4474 49.4548 67.3944C48.6068 67.3563 48.3733 67.3026 47.887 67.0339C47.0427 66.5673 46.5604 65.8855 46.1937 64.6403C46.0202 64.0509 45.9992 63.2886 45.9642 56.3067L45.9256 48.6219H40.1838H34.442L34.4827 57.7731C34.5269 67.7151 34.5109 67.4314 35.1567 69.7484C35.4881 70.9376 36.3231 72.741 36.9603 73.6438C37.6209 74.5796 39.0776 75.9593 40.0566 76.5764C41.4602 77.461 43.2251 78.0999 45.2354 78.4513C46.5571 78.6823 51.1111 78.7786 52.716 78.6093C57.1931 78.1372 60.3831 76.4114 62.6048 73.2594C63.6772 71.7379 64.422 70.0294 64.99 67.7879C65.6697 65.1052 65.7382 64.311 65.7382 59.1037C65.7382 55.8785 65.6943 54.08 65.5963 53.2925C65.0208 48.6673 63.7425 45.4364 60.8257 41.2357C60.3488 40.5487 57.9031 37.2982 55.391 34.0125C52.879 30.7267 50.4692 27.5266 50.0362 26.901C48.5201 24.7112 47.6356 22.8798 47.2021 21.0324C47.0221 20.2656 46.9765 19.6106 46.9328 17.1674C46.8734 13.8524 46.9573 12.9781 47.4337 11.9427C47.9314 10.8614 48.7953 10.3876 50.2689 10.3876C51.9484 10.3876 53.0159 11.3139 53.3323 13.046C53.4079 13.4596 53.4492 15.8696 53.4492 19.8576V26.0289H59.0922H64.7351L64.6907 18.4527C64.6529 12.0228 64.619 10.7121 64.4666 9.79022C63.9655 6.75961 63.0587 4.70713 61.5434 3.17353C60.0106 1.62232 57.9953 0.703399 55.0591 0.217108C53.8256 0.0127935 48.4179 -0.0780128 46.9559 0.0810069ZM0 39.2805V77.8406H5.7957H11.5914V60.8959V43.9512H15.5089H19.4263V60.8959V77.8406H25.2757H31.125V39.2805V0.720453H25.2757H19.4263V16.1445V31.5685H15.5089H11.5914V16.1445V0.720453H5.7957H0V39.2805ZM69.0117 39.2805V77.8406H82.535H96.0583V71.9752V66.1097H88.3844H80.7104V54.9761V43.8426H86.4525H92.1945V37.9771V32.1116H86.4525H80.7104V22.01V11.9083H88.0624H95.4143V6.31438V0.720453H82.213H69.0117V39.2805ZM116.231 0.910538C116.228 1.01514 114.137 18.3549 111.586 39.4435L106.947 77.7863L112.091 77.8146C114.92 77.8301 117.26 77.818 117.29 77.7878C117.32 77.7576 117.685 74.5061 118.102 70.5623L118.86 63.3917L123.047 63.4201L127.234 63.4485L127.99 70.6174L128.747 77.7863L134.363 77.8145L139.98 77.8426L139.921 77.4886C139.888 77.2939 137.65 59.9414 134.946 38.9275L130.031 0.720453H123.134C116.638 0.720453 116.236 0.731532 116.231 0.910538ZM141.78 39.2805V77.8406H147.576H153.371V60.6244V43.4081L154.793 43.4109C157.828 43.4169 159.053 43.6913 159.756 44.5223C160.554 45.4657 160.495 44.3502 160.569 59.9727C160.616 69.9757 160.671 74.2022 160.761 74.745C160.953 75.8903 161.186 76.7539 161.451 77.2975L161.689 77.7863L167.458 77.8145L173.227 77.8425V77.5729C173.227 77.4245 173.086 76.9433 172.913 76.5035C172.18 74.6355 172.226 75.7417 172.153 58.452C172.092 43.9967 172.073 42.7489 171.897 41.996C171.311 39.4887 170.157 37.8773 168.074 36.6582L167.212 36.1539L167.831 35.8027C168.172 35.6096 168.867 35.027 169.376 34.5079C170.16 33.708 170.385 33.3915 170.854 32.4306C171.505 31.096 171.889 29.6628 172.053 27.9477C172.129 27.1515 172.155 23.9181 172.127 18.5341C172.082 9.62088 172.072 9.45697 171.442 7.34627C170.319 3.57792 167.657 1.4708 163.274 0.880341C162.341 0.754668 160.16 0.724254 151.949 0.722625L141.78 0.720453V39.2805ZM174.193 6.31438V11.9083H179.076H183.96V44.8745V77.8406H189.702H195.444V44.8745V11.9083H200.327H205.211V6.31438V0.720453H189.702H174.193V6.31438ZM225.129 1.12702C225.094 1.35143 223.014 18.545 220.506 39.3349C217.999 60.1247 215.92 77.2934 215.887 77.4876L215.826 77.8406H221.037C223.902 77.8406 226.247 77.8277 226.247 77.812C226.247 77.7962 226.585 74.6076 226.998 70.726C227.411 66.8445 227.749 63.607 227.749 63.5315C227.749 63.4232 228.632 63.3942 231.93 63.3942H236.111L236.17 63.7472C236.246 64.2029 237.624 77.3707 237.624 77.6382C237.624 77.8331 237.832 77.8406 243.26 77.8406H248.896L248.833 77.4333C248.798 77.2093 246.561 59.8695 243.861 38.9004L238.952 0.774763L232.072 0.746847L225.193 0.718823L225.129 1.12702ZM250.718 39.2795V77.8406H255.923H261.128V55.827C261.128 43.7195 261.153 33.8382 261.183 33.8688C261.213 33.8993 263.655 43.6222 266.609 55.4751C269.563 67.3281 272.028 77.2093 272.086 77.4333L272.191 77.8406H276.91H281.628V39.2805V0.720453H276.369H271.11L271.101 21.2768C271.097 32.5828 271.064 41.7598 271.029 41.6702C270.994 41.5806 268.763 32.3424 266.072 21.141L261.179 0.774763L255.948 0.746521L250.718 0.718389V39.2795ZM285.921 39.2764V77.8406H295.594C306.08 77.8406 306.412 77.8249 308.429 77.2336C312.619 76.0045 315.188 72.9399 316.181 67.9833C316.685 65.4671 316.67 66.3442 316.67 38.9547C316.67 14.9313 316.657 12.9536 316.484 11.7377C315.57 5.31215 312.804 2.10134 307.212 0.975166C306.35 0.8017 305.29 0.779976 296.09 0.747716L285.921 0.712089V39.2764ZM158.569 11.5259C159.275 11.7911 159.935 12.4779 160.253 13.2762L160.509 13.9178L160.54 21.0867C160.562 26.0112 160.534 28.4819 160.452 28.9783C160.198 30.5035 159.371 31.6701 158.22 32.1262C157.683 32.3389 157.36 32.3729 155.491 32.4138L153.371 32.4602V21.8492V11.2382L155.706 11.2824C157.63 11.3188 158.133 11.3616 158.569 11.5259ZM302.307 11.419C303.318 11.7227 304.029 12.5713 304.47 13.9999C304.63 14.5188 304.649 16.686 304.68 38.3573C304.706 56.0898 304.683 62.3524 304.59 62.9597C304.413 64.1096 304.122 64.8213 303.574 65.438C302.739 66.3778 301.733 66.6506 299.095 66.6519L297.512 66.6528V38.9547V11.2566H299.639C301.215 11.2566 301.907 11.2987 302.307 11.419ZM124.446 37.5426C125.243 44.9804 125.921 51.2246 125.954 51.4188L126.012 51.7718H122.996H119.979L120.043 51.3102C120.098 50.9169 122.867 24.3294 122.903 23.8594C122.914 23.715 122.92 23.7146 122.956 23.8565C122.978 23.9461 123.649 30.1049 124.446 37.5426ZM233.419 38.0857L234.891 51.7175L231.948 51.7464C230.329 51.7623 228.986 51.7559 228.962 51.7321C228.918 51.6872 231.657 25.1514 231.795 24.291C231.863 23.8632 231.878 23.8429 231.91 24.1281C231.931 24.3073 232.61 30.5882 233.419 38.0857ZM76.4173 81.2145C74.5199 81.4221 72.3174 82.0264 70.9973 82.7018C68.9236 83.7628 67.2226 85.494 66.1683 87.6164C64.7871 90.397 64.3031 93.5634 64.4336 98.9672C64.506 101.964 64.6175 103.341 64.9399 105.213C65.5088 108.517 66.6828 111.54 68.5587 114.531C69.5604 116.129 69.9479 116.651 74.3747 122.375C79.9662 129.604 80.6066 130.505 81.5182 132.421C82.5805 134.653 82.7619 135.693 82.8294 139.936C82.9185 145.531 82.5215 147.243 80.9222 148.161C80.3593 148.484 80.2835 148.498 79.1005 148.498C77.9341 148.498 77.8348 148.48 77.2939 148.177C76.6153 147.797 76.2614 147.399 75.9076 146.62C75.3835 145.467 75.3518 144.925 75.3478 137.066L75.3441 129.761H69.597H63.8499L63.8905 138.967C63.9346 148.963 63.9162 148.637 64.5604 150.888C65.3989 153.817 66.9534 156.035 69.2331 157.555C70.7322 158.554 72.4708 159.206 74.6988 159.605C76.2324 159.879 81.9393 159.87 83.4473 159.591C85.5346 159.205 87.2948 158.528 88.787 157.536C92.0921 155.34 94.0807 151.73 94.8978 146.443C95.1739 144.657 95.2946 138.415 95.1019 135.876C94.7529 131.274 93.8134 128.18 91.6889 124.638C90.414 122.512 90.1372 122.135 82.9226 112.708C78.7851 107.301 77.6737 105.568 76.9619 103.411C76.3976 101.701 76.2865 100.611 76.3346 97.2608C76.373 94.5841 76.3996 94.2281 76.6087 93.5905C77.0514 92.2409 77.82 91.6589 79.2951 91.5566C80.9534 91.4416 81.9997 92.0439 82.5456 93.4276L82.8028 94.0793L82.8353 100.624L82.8678 107.168H88.4971H94.1264L94.1254 100.678C94.1243 92.1779 94.0082 90.6008 93.2045 88.1595C92.6488 86.4717 92.1027 85.5684 90.9064 84.3578C90.3456 83.7903 89.6121 83.163 89.2766 82.9639C88.0168 82.2163 86.4032 81.677 84.4669 81.3562C83.2531 81.1552 77.8318 81.0597 76.4173 81.2145ZM126.593 81.1655C123.726 81.4545 121.238 82.3373 119.448 83.7004C116.537 85.9177 114.835 89.3738 114.178 94.4052C114.063 95.2801 114.036 100.594 114.036 121.723V147.955L114.277 149.299C115.165 154.242 117.741 157.918 121.286 159.301C122.769 159.88 123.424 159.994 125.305 160C127.206 160.006 127.883 159.886 129.289 159.293C131.888 158.198 134.6 155.412 135.981 152.419L136.377 151.56L136.716 152.799C136.902 153.48 137.333 155.149 137.673 156.508L138.292 158.979L141.592 158.979L144.893 158.98L144.866 135.545L144.839 112.11L136.762 112.082L128.686 112.055V118.029V124.004H131.264H133.843L133.813 134.459L133.784 144.913L133.533 145.542C132.835 147.294 131.543 148.149 129.596 148.15C128.143 148.151 127.176 147.529 126.499 146.159C125.807 144.759 125.842 146.162 125.842 119.985C125.842 97.6969 125.854 96.0953 126.028 95.4089C126.559 93.3199 127.45 92.4886 129.24 92.4137C131.283 92.3283 132.33 93.1091 132.854 95.1089C132.978 95.5832 133.021 96.8165 133.057 101.004L133.104 106.299H138.74H144.375L144.326 100.189C144.275 93.9028 144.228 93.1238 143.762 90.848C143.513 89.6287 142.985 88.0886 142.468 87.0733C140.845 83.8832 138.19 82.0907 134.002 81.3571C133.07 81.194 127.691 81.0548 126.593 81.1655ZM206.123 81.2201C203.879 81.4642 201.597 82.1774 200.044 83.1204C199.063 83.7161 197.71 84.9443 196.985 85.8985C195.673 87.6241 194.735 90.2286 194.378 93.1406C194.055 95.7724 194.156 101.515 194.576 104.398C195.142 108.278 196.486 111.727 198.786 115.206C199.399 116.132 201.822 119.374 204.172 122.411C209.789 129.671 210.416 130.559 211.405 132.664C212.418 134.819 212.661 136.622 212.59 141.451C212.546 144.433 212.515 144.899 212.312 145.655C211.716 147.877 210.7 148.649 208.523 148.533C206.833 148.443 205.908 147.637 205.361 145.779C205.187 145.19 205.166 144.428 205.131 137.446L205.093 129.761H199.351H193.609L193.65 138.912C193.694 148.861 193.677 148.561 194.327 150.888C194.66 152.082 195.494 153.885 196.127 154.783C196.783 155.711 198.242 157.097 199.2 157.7C200.615 158.591 202.284 159.198 204.352 159.576C205.708 159.824 210.196 159.926 211.883 159.748C216.36 159.276 219.55 157.551 221.772 154.398C222.844 152.877 223.589 151.169 224.157 148.927C224.837 146.244 224.905 145.45 224.905 140.243C224.905 137.018 224.861 135.219 224.763 134.432C224.188 129.808 222.914 126.586 219.994 122.375C219.518 121.688 217.072 118.437 214.559 115.152C212.046 111.866 209.636 108.666 209.203 108.04C207.686 105.849 206.802 104.018 206.369 102.172C206.189 101.405 206.143 100.75 206.1 98.3065C206.04 94.9915 206.124 94.1172 206.601 93.0819C207.098 92.0006 207.962 91.5268 209.436 91.5268C210.836 91.5268 211.912 92.2493 212.348 93.4828C212.548 94.0464 212.561 94.4402 212.592 100.624L212.626 107.168H218.256H223.886V100.504C223.886 92.1478 223.765 90.5307 222.961 88.0939C221.699 84.2696 218.918 82.1129 214.28 81.3613C212.989 81.1521 207.605 81.0589 206.123 81.2201ZM239.663 81.2118C236.57 81.5862 234.112 82.6661 232.207 84.4872C229.66 86.9214 228.303 90.274 227.964 94.9662C227.829 96.8304 227.829 143.321 227.964 145.426C228.388 152.064 230.641 156.282 234.887 158.386C237.14 159.504 238.823 159.843 242.529 159.927C246.796 160.023 249.133 159.666 251.392 158.57C254.945 156.846 257.108 153.701 258.057 148.878C258.521 146.519 258.552 145.667 258.552 135.282V125.416H252.868H247.184L247.15 135.219C247.116 144.762 247.11 145.041 246.894 145.746C246.472 147.127 245.64 148.051 244.553 148.348C243.869 148.534 242.27 148.42 241.751 148.147C240.78 147.637 240.133 146.569 239.878 145.058C239.797 144.576 239.772 136.98 239.793 119.714L239.824 95.0569L240.065 94.4088C240.378 93.5689 240.794 93.0597 241.442 92.722C241.918 92.4744 242.085 92.45 243.309 92.45C244.564 92.45 244.69 92.4697 245.205 92.7444C246.266 93.3106 246.836 94.2859 247.06 95.9157C247.133 96.4456 247.176 99.3819 247.176 103.863V110.97H252.87H258.565L258.525 102.199C258.481 92.6893 258.476 92.5976 257.848 90.1533C256.561 85.1386 253.496 82.376 248.144 81.4061C247.116 81.2197 246.365 81.1762 243.688 81.1481C241.917 81.1295 240.105 81.1582 239.663 81.2118ZM309.921 81.2185C304.272 81.8215 300.666 84.4829 298.699 89.5009C297.942 91.4319 297.465 93.993 297.301 97.0121C297.162 99.5588 297.16 140.97 297.298 143.61C297.577 148.938 298.758 152.714 300.989 155.406C302.626 157.383 304.648 158.625 307.423 159.359C309.224 159.834 309.952 159.902 313.236 159.9C315.955 159.898 316.511 159.868 317.636 159.662C324.254 158.453 327.607 154.383 328.714 146.217C328.893 144.896 328.906 143.218 328.906 120.311C328.906 97.4398 328.893 95.7246 328.715 94.4181C327.574 86.0496 323.702 81.9481 316.249 81.2146C314.906 81.0824 311.174 81.0847 309.921 81.2185ZM345.703 81.164C342.651 81.5246 340.742 82.1102 338.991 83.2228C335.618 85.3659 333.77 88.6541 332.858 94.1336C332.682 95.1955 332.666 96.9394 332.632 119.442C332.594 144.061 332.606 144.968 332.995 147.303C334.075 153.781 337.148 157.734 342.268 159.232C344.232 159.807 345.078 159.896 348.547 159.896C351.203 159.896 351.955 159.861 352.84 159.698C359.22 158.517 362.67 154.71 363.836 147.561C364.274 144.878 364.285 144.116 364.245 119.279C364.21 97.2858 364.192 95.2833 364.021 94.1336C362.868 86.3873 359.521 82.5629 352.84 81.3554C352.013 81.2059 346.581 81.0602 345.703 81.164ZM0 120.42V158.98H9.67259C17.8559 158.98 19.5177 158.954 20.4656 158.811C25.8924 157.996 29.0656 154.905 30.254 149.277C30.7631 146.866 30.7494 147.677 30.7494 120.039C30.7494 95.5305 30.7379 93.894 30.5571 92.6889C30.0407 89.2464 29.1148 87.045 27.4301 85.2536C26.0933 83.8323 24.826 83.0836 22.7025 82.4608C20.75 81.8882 20.1287 81.8596 9.65402 81.8596H0V120.42ZM34.8815 120.42V158.98H48.3511H61.8208V153.114V147.249H54.1468H46.4729V136.115V124.982H52.2686H58.0643V119.116V113.251H52.2686H46.4729V103.149V93.0474H53.8248H61.1768V87.4535V81.8596H48.0291H34.8815V120.42ZM98.4195 120.42V158.98H104.215H110.011V120.42V81.8596H104.215H98.4195V120.42ZM148.864 120.42V158.98H154.122H159.381L159.408 137.101L159.435 115.222L164.688 136.313C167.577 147.914 170.033 157.759 170.147 158.192L170.354 158.98H175.064H179.774V120.42V81.8596H174.515H169.256L169.249 102.416C169.245 113.722 169.206 122.874 169.162 122.755C169.118 122.636 166.887 113.385 164.205 102.199L159.328 81.8604L154.096 81.86L148.864 81.8596V120.42ZM262.202 120.42V158.98H267.997H273.793V142.035V125.09H277.71H281.628V142.035V158.98H287.477H293.327V120.42V81.8596H287.477H281.628V97.2836V112.708H277.71H273.793V97.2836V81.8596H267.997H262.202V120.42ZM368.241 120.42V158.98H381.121H394V153.006V147.032H386.916H379.833V114.446V81.8596H374.037H368.241V120.42ZM16.7443 92.6768C17.7187 93.1334 18.2908 93.9991 18.6522 95.5644C18.8227 96.3029 18.836 98.0646 18.836 119.985C18.836 142.669 18.8281 143.645 18.6356 144.479C18.2769 146.034 17.7188 146.84 16.6624 147.33C15.912 147.677 15.0798 147.787 13.1745 147.79L11.5914 147.792V120.086V92.3805L13.9258 92.4153C16.0237 92.4465 16.3092 92.4731 16.7443 92.6768ZM314.991 92.7751C315.957 93.3116 316.565 94.2585 316.913 95.7655C317.087 96.5247 317.1 98.1276 317.1 120.365C317.1 142.915 317.09 144.201 316.905 145.065C316.542 146.772 315.724 147.895 314.559 148.287C313.704 148.574 312.122 148.473 311.33 148.081C310.637 147.738 310.073 147.13 309.705 146.33C309.128 145.077 309.157 146.451 309.157 120.365C309.157 97.1663 309.166 96.1101 309.356 95.3603C309.721 93.9179 310.462 93.0032 311.594 92.5956C312.044 92.434 312.399 92.3979 313.29 92.4234C314.302 92.4525 314.475 92.4883 314.991 92.7751ZM350.274 92.7473C351.273 93.2706 351.995 94.4162 352.268 95.9092C352.384 96.5389 352.411 101.218 352.411 120.583V144.479L352.168 145.402C351.866 146.55 351.353 147.41 350.693 147.872C350.007 148.352 349.475 148.474 348.278 148.424C347.481 148.392 347.144 148.326 346.73 148.123C345.58 147.557 344.872 146.428 344.577 144.692C344.43 143.82 344.414 141.012 344.442 119.872C344.472 97.227 344.483 96.0021 344.668 95.3874C345.033 94.1721 345.496 93.4316 346.177 92.9754C346.883 92.5032 347.361 92.3956 348.6 92.4299C349.572 92.4569 349.803 92.5005 350.274 92.7473Z" fill="white"/>
</svg>
