<svg width="372" height="383" viewBox="0 0 372 383" fill="none" xmlns="http://www.w3.org/2000/svg">
<path d="M186 0L202.402 80.2253L240.978 8.55563L233.748 90.2082L291.072 33.4622L260.852 109.286L331.829 72.5066L281.304 135.766L359.628 122.22L293.289 167.293L372 178.184L295.74 201.067L367.845 235.428L288.441 234.085L347.532 288.863L272.039 263.416L312.867 333.743L247.992 286.453L266.929 366.08L218.437 301.147L213.799 383L186 306.195L158.201 383L153.563 301.147L105.072 366.08L124.008 286.453L59.1332 333.743L99.9612 263.416L24.4676 288.863L83.5597 234.085L4.15493 235.428L76.2602 201.067L0 178.184L78.7114 167.293L12.372 122.22L90.6961 135.766L40.1716 72.5066L111.149 109.286L80.9286 33.4622L138.252 90.2082L131.022 8.55563L169.599 80.2253L186 0Z" fill="#D3FF8C"/>
<path d="M291.832 192.273C291.832 252.787 244.319 301.843 185.707 301.843C127.097 301.843 79.5834 252.787 79.5834 192.273C79.5834 131.76 127.097 82.7049 185.707 82.7049C244.319 82.7049 291.832 131.76 291.832 192.273Z" fill="black"/>
<path fill-rule="evenodd" clip-rule="evenodd" d="M97.1312 180.325C95.7563 202.053 98.9453 218.886 107.548 235.308C109.794 239.595 115.994 248.803 119.558 253.145C134.072 270.822 158.125 281.579 183.595 281.782C199.657 281.908 215.34 277.815 229.436 269.816C233.446 267.539 243.385 260.275 247.047 256.942C262.24 243.118 273.9 218.164 275.858 195.29C276.858 183.604 275.972 173.609 272.991 162.975C271.221 156.662 269.332 151.947 266.346 146.394C259.39 133.456 251.764 124.2 241.82 116.624C230.886 108.293 220.639 103.88 199.242 98.2884C197.431 97.8155 197.633 97.9414 201.992 100.01C216.728 107.004 231.32 121.444 240.157 137.778C249.303 154.681 252.235 171.354 249.202 189.212C246.383 205.809 238.845 220.629 227.535 231.809C225.119 234.198 216.58 240.46 212.754 242.649C203.527 247.929 191.746 251.512 181.159 252.256C173.128 252.821 163.153 251.82 155.734 249.705C146.314 247.018 136.267 241.989 128.69 236.167C121.615 230.732 110.486 217.679 105.794 209.313C100.289 199.496 97.8416 189.799 97.7555 177.461C97.7418 175.463 97.7052 175.316 97.5139 176.478C97.3896 177.231 97.2174 178.962 97.1312 180.325Z" fill="white"/>
</svg>
