<svg width="1184" height="118" viewBox="0 0 1184 118" fill="none" xmlns="http://www.w3.org/2000/svg">
<path d="M213.652 47.1586C217.093 53.1184 219.413 58.3597 220.612 62.8827C222.61 70.4919 221.214 76.6909 216.425 81.4798C210.499 87.4924 198.692 90.4984 181.002 90.4977L101.585 90.4947L115.181 114.041L63.679 114.039L0.0788879 3.89009L130.998 3.89505C148.687 3.8957 163.967 6.90268 176.836 12.916C187.156 17.7054 195.711 23.9048 202.5 31.5142C206.524 36.0372 210.241 41.2521 213.652 47.1586ZM82.1362 56.8114L149.669 56.814C157.653 56.8143 162.229 55.6438 163.395 53.3026C164.04 51.8659 163.594 49.8173 162.058 47.1567C160.552 44.5493 158.648 42.5272 156.344 41.0904C152.474 38.749 146.546 37.5782 138.562 37.5778L71.0292 37.5753L82.1362 56.8114Z" fill="white"/>
<path d="M206.822 3.89791L258.324 3.89981L321.924 114.049L270.423 114.047L206.822 3.89791Z" fill="white"/>
<path d="M433.144 3.50731C443.494 5.15724 453.736 7.89801 463.872 11.7296C473.301 15.5079 481.702 20.111 489.074 25.5388C496.446 30.9666 501.913 36.075 505.477 40.8641L444.762 40.8618C440.708 37.7754 433.567 35.5669 423.34 34.2363C416.123 33.225 408.276 32.7192 399.8 32.7189C379.47 32.7181 366.741 34.8727 361.613 39.1826C359.955 40.7788 359.096 42.7476 359.035 45.0889C358.913 49.1329 360.358 53.7623 363.369 58.9771C364.506 60.9459 366.042 63.1809 367.977 65.6818C369.943 68.1296 372.309 70.5242 375.073 72.8656C377.807 75.1537 380.94 77.1227 384.472 78.7723C389.202 80.7945 394.654 82.2581 400.827 83.1629C407.061 84.0677 412.942 84.6266 418.47 84.8397C423.998 85.0527 427.868 85.1593 430.079 85.1594C454.402 85.1603 467.76 82.0746 470.154 75.9022L436.802 75.9009L422.792 51.6362L512.436 51.6396L548.476 114.057L515.493 114.056L502.222 100.966C495.959 107.67 486.916 112.379 475.093 115.092C466.833 116.954 458.126 117.885 448.975 117.885C442.833 117.885 435.186 117.725 426.034 117.405C403.707 116.606 383.683 112.881 365.961 106.228C339.885 95.9578 320.717 80.2066 308.458 58.975C296.199 37.7434 297.178 21.993 311.394 11.7238C321.435 5.07286 337.157 1.34869 358.562 0.551325C367.346 0.232369 374.808 0.0730523 380.95 0.073276C387.031 0.0734912 394.647 0.233431 403.799 0.553028C412.951 0.872639 422.733 1.8574 433.144 3.50731Z" fill="white"/>
<path d="M621.281 1.35943C630.863 0.508412 640.69 0.0830903 650.763 0.0834573C660.774 0.0838483 670.863 0.589714 681.028 1.60113C691.255 2.6125 701.374 4.28904 711.386 6.6307C725.883 10.356 737.738 15.0922 746.953 20.8393C756.229 26.5864 762.341 31.6949 765.291 36.1648L704.577 36.1625C703.286 33.9276 699.094 32.2513 692 31.1336C684.874 29.9627 676.767 29.377 667.677 29.3767C658.525 29.3763 651.554 29.7486 646.763 30.4933C642.034 31.2381 640.284 32.6747 641.513 34.8032C642.742 36.9317 646.059 38.1557 651.464 38.4752C663.472 39.4866 675.741 40.3651 688.271 41.1105C706.728 42.1222 723.803 43.5063 739.497 45.2629C749.324 46.4339 757.908 48.1635 765.249 50.4519C772.65 52.7402 779.07 55.9864 784.507 60.1902C789.943 64.3941 794.69 70.008 798.745 77.032C801.511 81.8211 802.894 86.078 802.895 89.8028C802.865 93.4744 801.899 96.6936 799.995 99.4605C798.092 102.227 795.62 104.595 792.581 106.564C789.51 108.479 786.255 110.076 782.816 111.352C774.802 114.172 765.082 115.955 753.658 116.699C742.326 117.497 731.839 117.896 722.196 117.895C716.115 117.895 708.99 117.735 700.821 117.415C692.652 117.096 683.992 116.297 674.84 115.02C665.749 113.743 656.613 111.747 647.429 109.033C638.216 106.265 629.432 102.487 621.077 97.6978C616.347 95.037 612.2 92.2167 608.637 89.2368C605.043 86.2036 601.864 82.2925 599.098 77.5034L659.812 77.5057C662.209 81.6562 667.231 84.5564 674.878 86.2062C682.495 87.8029 692.629 88.6014 705.282 88.6019C714.434 88.6022 721.451 88.2566 726.334 87.5651C731.216 86.8735 734.425 85.9424 735.96 84.7718C737.496 83.6013 737.879 82.3508 737.111 81.0205C735.821 78.7856 732.519 77.2158 727.206 76.311C721.923 75.353 712.142 74.4746 697.861 73.6759C697.462 73.6227 697.078 73.5961 696.71 73.5961C679.757 72.5312 664.755 71.4398 651.703 70.3219C638.62 69.1508 628.224 67.6339 620.516 65.7712C599.815 60.3429 586.116 50.1259 579.417 35.1202C576.313 27.6173 576.542 21.4715 580.103 16.6826C583.664 11.8937 588.93 8.40865 595.901 6.22726C603.27 3.88624 611.731 2.26367 621.281 1.35943Z" fill="white"/>
<path d="M869.549 81.7438L999.177 81.7487L1017.84 114.075L836.713 114.068L773.113 3.91926L952.768 3.92603L971.387 36.1725L843.233 36.1677L849.225 46.5441L970.376 46.5486L984.387 70.8134L863.235 70.8088L869.549 81.7438Z" fill="white"/>
<path d="M991.38 37.61L971.931 3.92676L1163.84 3.93399L1183.29 37.6173L1113.08 37.6146L1157.24 114.08L1105.73 114.078L1061.58 37.6126L991.38 37.61Z" fill="white"/>
</svg>
