<svg width="1575" height="157" viewBox="0 0 1575 157" fill="none" xmlns="http://www.w3.org/2000/svg">
<g clip-path="url(#clip0_111_53)">
<path d="M284.208 62.7449C288.785 70.6745 291.871 77.6481 293.466 83.6659C296.124 93.7901 294.267 102.038 287.896 108.41C280.013 116.409 264.307 120.409 240.775 120.408L135.132 120.404L153.218 151.732L84.7081 151.73L0.10495 5.17578L174.258 5.18238C197.789 5.18325 218.115 9.18406 235.234 17.1848C248.962 23.5572 260.342 31.8055 269.373 41.9299C274.726 47.9478 279.67 54.8862 284.208 62.7449ZM109.261 75.588L199.095 75.5915C209.716 75.5919 215.803 74.0345 217.354 70.9195C218.212 69.008 217.619 66.2823 215.575 62.7424C213.572 59.2732 211.039 56.5828 207.975 54.6711C202.826 51.5559 194.941 49.9981 184.32 49.9976L94.4856 49.9942L109.261 75.588Z" fill="#FF49F8"/>
<path d="M275.122 5.18622L343.632 5.18875L428.235 151.743L359.727 151.741L275.122 5.18622Z" fill="#FF49F8"/>
<path d="M576.184 4.66648C589.952 6.86173 603.576 10.5083 617.059 15.6063C629.602 20.6334 640.778 26.7578 650.584 33.9796C660.391 41.2013 667.663 47.9981 672.404 54.37L591.639 54.367C586.246 50.2605 576.747 47.322 563.142 45.5517C553.542 44.2061 543.104 43.5332 531.829 43.5328C504.785 43.5317 487.852 46.3984 481.031 52.1328C478.825 54.2565 477.683 56.876 477.601 59.9911C477.439 65.3717 479.361 71.5312 483.367 78.4695C484.879 81.089 486.922 84.0627 489.496 87.3902C492.112 90.647 495.259 93.833 498.936 96.9483C502.573 99.9926 506.74 102.612 511.439 104.807C517.731 107.498 524.983 109.445 533.195 110.649C541.487 111.853 549.31 112.596 556.664 112.88C564.018 113.163 569.166 113.305 572.107 113.305C604.462 113.306 622.231 109.201 625.416 100.989L581.05 100.987L562.413 68.7024L681.661 68.7069L729.603 151.754L685.728 151.752L668.074 134.336C659.743 143.256 647.713 149.521 631.986 153.131C620.998 155.608 609.416 156.847 597.243 156.847C589.073 156.847 578.9 156.634 566.726 156.208C537.026 155.145 510.389 150.189 486.815 141.337C452.127 127.673 426.629 106.716 410.322 78.4667C394.015 50.2179 395.317 29.2619 414.228 15.5986C427.585 6.74946 448.499 1.79442 476.972 0.733522C488.657 0.309148 498.583 0.0971758 506.754 0.0974735C514.843 0.0977598 524.974 0.310561 537.148 0.735788C549.322 1.16103 562.335 2.47127 576.184 4.66648Z" fill="#FF49F8"/>
<path d="M826.451 1.80872C839.197 0.676429 852.269 0.110535 865.669 0.111023C878.986 0.111543 892.406 0.784602 905.928 2.1303C919.533 3.47594 932.993 5.70659 946.312 8.82219C965.596 13.7787 981.366 20.0803 993.624 27.7268C1005.96 35.3734 1014.09 42.1703 1018.02 48.1176L937.254 48.1145C935.537 45.1409 929.96 42.9106 920.524 41.4235C911.044 39.8656 900.26 39.0863 888.168 39.0859C875.994 39.0854 866.721 39.5807 860.348 40.5716C854.057 41.5625 851.729 43.4739 853.364 46.3059C854.999 49.1379 859.411 50.7665 866.601 51.1916C882.575 52.5372 898.895 53.7061 915.563 54.6978C940.115 56.0439 962.829 57.8855 983.706 60.2227C996.778 61.7807 1008.2 64.0819 1017.96 67.1267C1027.81 70.1713 1036.35 74.4904 1043.58 80.0836C1050.81 85.6769 1057.13 93.1462 1062.52 102.492C1066.2 108.864 1068.04 114.527 1068.04 119.483C1068 124.368 1066.72 128.652 1064.18 132.333C1061.65 136.014 1058.36 139.165 1054.32 141.784C1050.23 144.332 1045.9 146.457 1041.33 148.155C1030.67 151.907 1017.74 154.279 1002.54 155.269C987.469 156.331 973.519 156.862 960.691 156.86C952.602 156.86 943.124 156.647 932.258 156.222C921.391 155.797 909.871 154.734 897.697 153.035C885.604 151.336 873.451 148.68 861.234 145.069C848.978 141.386 837.293 136.36 826.179 129.988C819.887 126.448 814.371 122.695 809.631 118.73C804.85 114.695 800.621 109.491 796.942 103.119L877.706 103.122C880.895 108.644 887.575 112.503 897.747 114.698C907.88 116.822 921.36 117.885 938.192 117.886C950.366 117.886 959.7 117.426 966.196 116.506C972.69 115.586 976.959 114.347 979.001 112.79C981.044 111.232 981.554 109.568 980.532 107.798C978.816 104.825 974.423 102.736 967.356 101.532C960.328 100.258 947.317 99.0891 928.32 98.0264C927.789 97.9556 927.279 97.9202 926.789 97.9202C904.238 96.5034 884.281 95.0512 866.919 93.5639C849.516 92.0057 835.686 89.9875 825.433 87.5091C797.896 80.2867 779.673 66.6929 770.762 46.7277C766.633 36.745 766.937 28.568 771.674 22.1963C776.411 15.8246 783.416 11.1878 792.689 8.28541C802.492 5.17066 813.747 3.01181 826.451 1.80872Z" fill="#FF49F8"/>
<path d="M1156.71 108.761L1329.14 108.767L1353.97 151.778L1113.03 151.768L1028.42 5.2146L1267.41 5.22361L1292.17 48.1278L1121.7 48.1214L1129.67 61.9273L1290.83 61.9333L1309.47 94.2178L1148.31 94.2117L1156.71 108.761Z" fill="#FF49F8"/>
<path d="M1318.77 50.0404L1292.9 5.22461L1548.18 5.23423L1574.06 50.0502L1480.66 50.0466L1539.4 151.784L1470.88 151.782L1412.15 50.0439L1318.77 50.0404Z" fill="#FF49F8"/>
</g>
<defs>
<clipPath id="clip0_111_53">
<rect width="1575" height="157" fill="white"/>
</clipPath>
</defs>
</svg>
