<svg width="80" height="80" viewBox="0 0 80 80" fill="none" xmlns="http://www.w3.org/2000/svg">
<path d="M20.7897 79.3667L59.6909 79.5236C70.8036 79.5684 79.8194 70.5961 79.8282 59.4832L79.8589 20.5818C79.8677 9.46893 70.8662 0.423873 59.7534 0.379039L20.8523 0.222091C9.73952 0.177258 0.723753 9.14963 0.714966 20.2625L0.684211 59.1639C0.675425 70.2768 9.67695 79.3218 20.7897 79.3667Z" fill="white"/>
<path d="M50.1975 62.6971L53.0937 62.7088C57.261 62.7256 60.6419 59.361 60.6452 55.1936L60.6693 24.7167C60.6726 20.5494 57.297 17.1575 53.1297 17.1407L50.2335 17.129C46.0662 17.1122 42.6853 20.4768 42.682 24.6441L42.6579 55.1211C42.6546 59.2884 46.0302 62.6803 50.1975 62.6971Z" fill="#FF49F8"/>
<path d="M26.2144 62.6003L29.1107 62.612C33.2779 62.6288 36.6588 59.2642 36.6621 55.0969L36.6862 24.6199C36.6895 20.4526 33.314 17.0607 29.1467 17.0439L26.2505 17.0322C22.0832 17.0154 18.7023 20.38 18.699 24.5473L18.6749 55.0243C18.6716 59.1916 22.0472 62.5835 26.2144 62.6003Z" fill="#FF49F8"/>
</svg>
