<svg width="1920" height="221" viewBox="0 0 1920 221" fill="none" xmlns="http://www.w3.org/2000/svg">
<path d="M1290.64 57.8244C1290.64 53.8874 1285.39 50.6954 1278.91 50.6954V0C1331.45 0 1374.03 25.8889 1374.03 57.8244V163.176C1374.03 167.113 1379.28 170.305 1385.76 170.305C1392.24 170.305 1397.49 167.113 1397.49 163.176V57.8244C1397.49 25.8889 1440.08 0 1492.61 0C1545.14 0 1587.73 25.8889 1587.73 57.8244V163.176C1587.73 167.113 1592.98 170.305 1599.46 170.305C1605.93 170.305 1611.18 167.113 1611.18 163.176V57.8244C1611.18 25.8889 1653.77 0 1706.3 0C1758.84 0 1801.43 25.8889 1801.43 57.8244V163.176C1801.43 167.113 1806.67 170.305 1813.15 170.305C1819.63 170.305 1824.88 167.113 1824.88 163.176V57.8244C1824.88 25.8889 1867.47 0 1920 0V50.6954C1913.52 50.6954 1908.27 53.8874 1908.27 57.8244V163.176C1908.27 195.111 1865.69 221 1813.15 221C1760.62 221 1718.03 195.111 1718.03 163.176V57.8244C1718.03 53.8874 1712.78 50.6954 1706.3 50.6954C1699.83 50.6954 1694.58 53.8874 1694.58 57.8244V163.176C1694.58 195.111 1651.99 221 1599.46 221C1546.92 221 1504.34 195.111 1504.34 163.176V57.8244C1504.34 53.8874 1499.09 50.6954 1492.61 50.6954C1486.13 50.6954 1480.88 53.8874 1480.88 57.8244V163.176C1480.88 195.111 1438.3 221 1385.76 221C1333.23 221 1290.64 195.111 1290.64 163.176V57.8244Z" fill="black"/>
<path d="M650.556 57.8244C650.556 53.8874 645.305 50.6954 638.829 50.6954V0C691.362 0 733.949 25.8889 733.949 57.8244V163.176C733.949 167.113 739.2 170.305 745.676 170.305C752.153 170.305 757.403 167.113 757.403 163.176V57.8244C757.403 25.8889 799.99 0 852.525 0C905.058 0 947.644 25.8889 947.644 57.8244V163.176C947.644 167.113 952.896 170.305 959.372 170.305C965.847 170.305 971.099 167.113 971.099 163.176V57.8244C971.099 25.8889 1013.69 0 1066.22 0C1118.75 0 1161.34 25.8889 1161.34 57.8244V163.176C1161.34 167.113 1166.59 170.305 1173.07 170.305C1179.54 170.305 1184.8 167.113 1184.8 163.176V57.8244C1184.8 25.8889 1226.38 0 1278.91 0V50.6954C1272.44 50.6954 1268.19 53.8874 1268.19 57.8244V163.176C1268.19 195.111 1225.6 221 1173.07 221C1120.53 221 1077.95 195.111 1077.95 163.176V57.8244C1077.95 53.8874 1072.7 50.6954 1066.22 50.6954C1059.74 50.6954 1054.49 53.8874 1054.49 57.8244V163.176C1054.49 195.111 1011.9 221 959.372 221C906.839 221 864.252 195.111 864.252 163.176V57.8244C864.252 53.8874 859.001 50.6954 852.525 50.6954C846.046 50.6954 840.797 53.8874 840.797 57.8244V163.176C840.797 195.111 798.21 221 745.676 221C693.143 221 650.556 195.111 650.556 163.176V57.8244Z" fill="black"/>
<path d="M11.7273 57.8244C11.7273 53.8874 6.47665 50.6954 0 50.6954V0C52.5336 0 95.1205 25.8889 95.1205 57.8244V163.176C95.1205 167.113 100.371 170.305 106.848 170.305C113.324 170.305 118.575 167.113 118.575 163.176V57.8244C118.575 25.8889 161.162 0 213.696 0C266.229 0 308.815 25.8889 308.815 57.8244V163.176C308.815 167.113 314.067 170.305 320.543 170.305C327.019 170.305 332.27 167.113 332.27 163.176V57.8244C332.27 25.8889 374.857 0 427.39 0C479.925 0 522.511 25.8889 522.511 57.8244V163.176C522.511 167.113 527.761 170.305 534.239 170.305C540.715 170.305 545.967 167.113 545.967 163.176V57.8244C545.967 25.8889 588.553 0 641.086 0V50.6954C634.61 50.6954 629.358 53.8874 629.358 57.8244V163.176C629.358 195.111 586.772 221 534.239 221C481.704 221 439.117 195.111 439.117 163.176V57.8244C439.117 53.8874 433.868 50.6954 427.39 50.6954C420.914 50.6954 415.662 53.8874 415.662 57.8244V163.176C415.662 195.111 373.076 221 320.543 221C268.01 221 225.424 195.111 225.424 163.176V57.8244C225.424 53.8874 220.172 50.6954 213.696 50.6954C207.218 50.6954 201.969 53.8874 201.969 57.8244V163.176C201.969 195.111 159.381 221 106.848 221C54.314 221 11.7273 195.111 11.7273 163.176V57.8244Z" fill="black"/>
</svg>
