<svg width="386" height="385" viewBox="0 0 386 385" fill="none" xmlns="http://www.w3.org/2000/svg">
<path d="M192.632 0.945099L207.59 94.6964L249.52 9.51867L236.177 103.513L301.353 34.4776L260.895 120.364L343.526 73.604L279.547 143.75L372.291 123.422L290.477 171.595L385.093 179.504L292.712 201.424L380.794 236.867L286.055 230.587L359.775 290.415L271.097 256.492L323.906 335.39L249.167 276.838L276.372 367.794L222.214 289.817L221.398 384.749L192.632 294.274L163.868 384.749L163.05 289.817L108.893 367.794L136.098 276.838L61.359 335.39L114.168 256.492L25.4895 290.415L99.2097 230.587L4.4713 236.867L92.553 201.424L0.172058 179.504L94.7886 171.595L12.9737 123.422L105.718 143.75L41.7389 73.604L124.37 120.364L83.9116 34.4776L149.088 103.513L135.744 9.51867L177.674 94.6964L192.632 0.945099Z" fill="#FF6AF9"/>
<path d="M276.817 194.292C276.817 240.578 239.291 278.101 193 278.101C146.709 278.101 109.183 240.578 109.183 194.292C109.183 148.006 146.709 110.483 193 110.483C239.291 110.483 276.817 148.006 276.817 194.292Z" fill="white"/>
</svg>
