<svg width="1222" height="397" viewBox="0 0 1222 397" fill="none" xmlns="http://www.w3.org/2000/svg">
<path fill-rule="evenodd" clip-rule="evenodd" d="M279.742 263.067C279.734 263.061 279.734 263.05 279.742 263.043L349.594 203.825C349.602 203.818 349.615 203.818 349.623 203.825C349.631 203.832 349.644 203.832 349.652 203.825L372.994 184.036C373.002 184.03 373.002 184.019 372.994 184.012C372.986 184.005 372.986 183.994 372.994 183.988C373.002 183.981 373.002 183.97 372.994 183.963L349.652 164.175C349.644 164.168 349.631 164.168 349.623 164.175C349.615 164.182 349.602 164.182 349.594 164.175L279.742 104.957C279.734 104.95 279.734 104.939 279.742 104.932C279.75 104.925 279.75 104.914 279.742 104.908L268.071 95.0135L259.493 87.7765C257.648 86.2198 254.664 86.2229 252.824 87.7834L232.793 104.764C232.788 104.769 232.788 104.777 232.793 104.781C232.799 104.786 232.799 104.794 232.793 104.798L166.322 161.248C164.478 162.814 161.486 162.815 159.641 161.251L69.6293 84.9424C69.6213 84.9356 69.6214 84.9246 69.6294 84.9179C69.6374 84.9111 69.6375 84.9001 69.6295 84.8934L46.2876 65.1051C46.2796 65.0983 46.2666 65.0982 46.2585 65.105C46.2505 65.1117 46.2375 65.1117 46.2295 65.1049L46.1462 65.0343C46.0918 64.9882 46.0037 64.9882 45.9494 65.0343L22.696 84.7476C22.6855 84.7565 22.6855 84.771 22.696 84.78C22.7027 84.7856 22.7051 84.7934 22.7034 84.8007C22.7024 84.805 22.6999 84.8091 22.6959 84.8125L0 103.795V143.152L42.7238 107.42C44.5724 105.874 47.5467 105.884 49.3813 107.442L136.201 181.172C138.041 182.734 138.041 185.265 136.201 186.828L49.5912 260.379C47.7465 261.946 44.7519 261.946 42.9074 260.379L0 223.925V264.194L22.6974 283.183C22.709 283.193 22.7091 283.208 22.6976 283.218C22.6862 283.228 22.6862 283.244 22.6976 283.253L45.9493 302.965C46.0037 303.011 46.0919 303.011 46.1463 302.965L46.2297 302.894C46.2377 302.888 46.2506 302.888 46.2586 302.894C46.2624 302.897 46.2672 302.899 46.272 302.899C46.2776 302.9 46.2833 302.898 46.2875 302.894L69.6295 283.106C69.6375 283.099 69.6375 283.088 69.6296 283.081C69.6251 283.078 69.6231 283.072 69.6238 283.067C69.6242 283.064 69.6262 283.06 69.6296 283.057L159.641 206.749C161.486 205.185 164.478 205.186 166.322 206.751L252.824 280.211C254.664 281.774 257.649 281.778 259.496 280.221L268.071 272.986L279.742 263.092C279.75 263.085 279.75 263.074 279.742 263.067ZM253.474 240.799C255.325 242.368 258.328 242.361 260.169 240.785L323.052 186.931C324.88 185.365 324.872 182.842 323.035 181.284L259.695 127.588C257.851 126.024 254.862 126.024 253.018 127.588L189.814 181.169C187.97 182.733 187.97 185.267 189.814 186.83L253.474 240.799Z" fill="white"/>
<circle r="10" transform="matrix(-1 0 0 1 348 185)" fill="black"/>
<circle r="10" transform="matrix(-1 0 0 1 162 185)" fill="#2630F7"/>
<path fill-rule="evenodd" clip-rule="evenodd" d="M439.5 136.397C433.357 152.934 430 170.825 430 189.5C430 207.035 432.96 223.879 438.407 239.56C436.924 242.209 434.084 244 430.824 244H429.088C424.296 244 420.412 240.13 420.412 235.357V131.643C420.412 126.869 425.032 123 429.824 123C434.615 123 439.5 126.869 439.5 131.643V136.397ZM396.118 138.557C371.2 138.557 351 158.679 351 183.5C351 208.321 371.2 228.443 396.118 228.443H410V138.557H396.118Z" fill="url(#paint0_linear_108_459)"/>
<path d="M752.412 43.5141C752.924 37.5601 746.965 33.1669 741.429 35.4173L687.801 57.2165C682.01 59.5703 681.035 67.3579 686.066 71.067L734.732 106.944C739.764 110.653 746.914 107.418 747.45 101.191L752.412 43.5141Z" fill="#D3FF8C"/>
<path d="M745.833 56.1992C746.345 50.2452 740.386 45.852 734.85 48.1024L692.756 65.2129C686.966 67.5667 685.99 75.3543 691.022 79.0633L729.22 107.224C734.251 110.933 741.402 107.698 741.938 101.47L745.833 56.1992Z" fill="#2630F7"/>
<path d="M753.094 259.705C752.373 253.772 745.638 250.697 740.682 254.036L696.386 283.885C691.202 287.378 691.847 295.2 697.533 297.797L748.28 320.972C753.966 323.569 760.299 318.934 759.545 312.729L753.094 259.705Z" fill="#D3FF8C"/>
<path d="M461.571 256.725C462.178 250.78 468.852 247.575 473.872 250.818L518.736 279.807C523.986 283.199 523.492 291.032 517.857 293.738L467.567 317.888C461.933 320.593 455.511 316.082 456.146 309.863L461.571 256.725Z" fill="#D3FF8C"/>
<rect x="444" y="46.6473" width="336" height="292" rx="146" fill="#D3FF8C"/>
<path d="M498.317 306.56C497.805 300.606 503.764 296.213 509.3 298.464L558.784 318.578C564.574 320.932 565.549 328.719 560.518 332.428L515.613 365.532C510.582 369.242 503.432 366.007 502.896 359.779L498.317 306.56Z" fill="#D3FF8C"/>
<path d="M722.569 306.56C723.081 300.606 717.122 296.213 711.586 298.464L662.103 318.578C656.312 320.932 655.337 328.719 660.368 332.428L705.273 365.532C710.304 369.242 717.455 366.007 717.99 359.779L722.569 306.56Z" fill="#D3FF8C"/>
<path d="M646.663 66.8113C651.992 63.1474 651.065 55.026 645.057 52.7353L589.965 31.731C584.36 29.5939 578.454 34.2009 579.136 40.178L585.369 94.7777C586.051 100.755 592.834 103.825 597.805 100.407L646.663 66.8113Z" fill="#D3FF8C"/>
<path d="M645.227 75.0312C650.556 71.3673 649.629 63.2459 643.621 60.9552L604.058 45.8715C598.453 43.7344 592.547 48.3414 593.229 54.3185L597.705 93.5279C598.387 99.5051 605.17 102.575 610.141 99.1569L645.227 75.0312Z" fill="#2630F7"/>
<rect x="670" y="136.647" width="25" height="47" rx="8" fill="black"/>
<path d="M708 146.647C708 124.556 725.909 106.647 748 106.647H771C793.091 106.647 811 124.556 811 146.647V223.647C811 245.738 793.091 263.647 771 263.647H748C725.909 263.647 708 245.738 708 223.647V146.647Z" fill="#2630F7"/>
<rect x="732" y="134.647" width="28" height="101" rx="8" fill="black"/>
<rect x="772" y="134.647" width="23" height="101" rx="8" fill="black"/>
<path fill-rule="evenodd" clip-rule="evenodd" d="M975.257 263.067C975.264 263.061 975.264 263.05 975.257 263.043L913.645 203.825C913.638 203.818 913.626 203.818 913.619 203.825C913.612 203.832 913.601 203.832 913.594 203.825L893.005 184.036C892.998 184.03 892.998 184.019 893.005 184.012C893.012 184.005 893.012 183.994 893.005 183.988C892.998 183.981 892.998 183.97 893.005 183.963L913.594 164.175C913.601 164.168 913.612 164.168 913.619 164.175C913.626 164.182 913.638 164.182 913.645 164.175L975.257 104.957C975.264 104.95 975.264 104.939 975.257 104.932C975.25 104.925 975.25 104.914 975.257 104.908L985.551 95.0135L993.118 87.7765C994.745 86.2198 997.377 86.2229 999 87.7834L1016.67 104.764C1016.67 104.769 1016.67 104.777 1016.67 104.781C1016.66 104.786 1016.66 104.794 1016.67 104.798L1075.3 161.248C1076.92 162.814 1079.56 162.815 1081.19 161.251L1160.58 84.9424C1160.59 84.9356 1160.59 84.9246 1160.58 84.9179C1160.58 84.9111 1160.58 84.9001 1160.58 84.8934L1181.17 65.1051C1181.18 65.0983 1181.19 65.0982 1181.2 65.105C1181.21 65.1117 1181.22 65.1117 1181.22 65.1049L1181.3 65.0343C1181.35 64.9882 1181.42 64.9882 1181.47 65.0343L1201.98 84.7476C1201.99 84.7565 1201.99 84.771 1201.98 84.78C1201.98 84.7856 1201.97 84.7934 1201.97 84.8007C1201.98 84.805 1201.98 84.8091 1201.98 84.8125L1222 103.795V143.152L1184.32 107.42C1182.69 105.874 1180.06 105.884 1178.44 107.442L1101.87 181.172C1100.24 182.734 1100.24 185.265 1101.87 186.828L1178.26 260.379C1179.89 261.946 1182.53 261.946 1184.15 260.379L1222 223.925V264.194L1201.98 283.183C1201.97 283.193 1201.97 283.208 1201.98 283.218C1201.99 283.228 1201.99 283.244 1201.98 283.253L1181.47 302.965C1181.42 303.011 1181.35 303.011 1181.3 302.965L1181.22 302.894C1181.22 302.888 1181.21 302.888 1181.2 302.894C1181.19 302.897 1181.19 302.899 1181.19 302.899C1181.18 302.9 1181.18 302.898 1181.17 302.894L1160.58 283.106C1160.58 283.099 1160.58 283.088 1160.58 283.081C1160.59 283.078 1160.59 283.072 1160.59 283.067C1160.59 283.064 1160.59 283.06 1160.58 283.057L1081.19 206.749C1079.56 205.185 1076.92 205.186 1075.3 206.751L999 280.211C997.377 281.774 994.744 281.778 993.115 280.221L985.551 272.986L975.257 263.092C975.25 263.085 975.25 263.074 975.257 263.067ZM998.426 240.799C996.794 242.368 994.145 242.361 992.521 240.785L937.056 186.931C935.444 185.365 935.451 182.842 937.071 181.284L992.939 127.588C994.565 126.024 997.202 126.024 998.829 127.588L1054.58 181.169C1056.2 182.733 1056.2 185.267 1054.58 186.83L998.426 240.799Z" fill="white"/>
<circle cx="917" cy="185" r="10" fill="black"/>
<circle cx="1078" cy="185" r="10" fill="#2630F7"/>
<path fill-rule="evenodd" clip-rule="evenodd" d="M915 183.5C915 158.679 894.8 138.557 869.882 138.557H856V228.443H869.882C894.8 228.443 915 208.321 915 183.5Z" fill="url(#paint1_linear_108_459)"/>
<path d="M826.5 131.643C826.5 126.869 830.385 123 835.176 123H836.912C841.704 123 845.588 126.869 845.588 131.643V235.357C845.588 240.13 841.704 244 836.912 244H835.176C830.385 244 826.5 240.13 826.5 235.357V131.643Z" fill="url(#paint2_linear_108_459)"/>
<defs>
<linearGradient id="paint0_linear_108_459" x1="395.25" y1="123" x2="395.25" y2="244" gradientUnits="userSpaceOnUse">
<stop stop-color="#FF49F8"/>
<stop offset="1" stop-color="#FF7FFA"/>
</linearGradient>
<linearGradient id="paint1_linear_108_459" x1="856" y1="123" x2="856" y2="244" gradientUnits="userSpaceOnUse">
<stop stop-color="#FF49F8"/>
<stop offset="1" stop-color="#FF7FFA"/>
</linearGradient>
<linearGradient id="paint2_linear_108_459" x1="856" y1="123" x2="856" y2="244" gradientUnits="userSpaceOnUse">
<stop stop-color="#FF49F8"/>
<stop offset="1" stop-color="#FF7FFA"/>
</linearGradient>
</defs>
</svg>
